<?xml version="1.0" encoding="UTF-8" standalone="no"?>
<!-- Created with Inkscape (http://www.inkscape.org/) -->

<svg
   version="1.1"
   id="svg1"
   width="1664.6801"
   height="364.76001"
   viewBox="0 0 1664.6801 364.76001"
   sodipodi:docname="markforged_primary_logo_w.eps"
   xmlns:inkscape="http://www.inkscape.org/namespaces/inkscape"
   xmlns:sodipodi="http://sodipodi.sourceforge.net/DTD/sodipodi-0.dtd"
   xmlns="http://www.w3.org/2000/svg"
   xmlns:svg="http://www.w3.org/2000/svg">
  <defs
     id="defs1" />
  <sodipodi:namedview
     id="namedview1"
     pagecolor="#ffffff"
     bordercolor="#000000"
     borderopacity="0.25"
     inkscape:showpageshadow="2"
     inkscape:pageopacity="0.0"
     inkscape:pagecheckerboard="0"
     inkscape:deskcolor="#d1d1d1">
    <inkscape:page
       x="0"
       y="0"
       inkscape:label="1"
       id="page1"
       width="1664.6801"
       height="364.76001"
       margin="0"
       bleed="0" />
  </sodipodi:namedview>
  <g
     id="g1"
     inkscape:groupmode="layer"
     inkscape:label="1">
    <g
       id="group-R5">
      <path
         id="path2"
         d="m 12218.1,911.879 c -46.2,-52.738 -108.8,-79.117 -187.9,-79.117 -79.2,0 -141.8,28.687 -187.9,86.058 -46.2,57.352 -69.3,140.74 -69.3,250.2 0,109.43 23.1,192.83 69.3,250.2 46.1,57.35 108.7,86.04 187.9,86.04 79.1,0 141.7,-26.4 187.9,-79.11 46.1,-52.76 69.2,-138.47 69.2,-257.13 0,-118.68 -23.1,-204.411 -69.2,-257.141 z m 247.2,1147.191 h -158.2 l -19.8,-19.78 V 1564.6 h -19.8 c -17.1,22.4 -37.6,42.18 -61.3,59.32 -21.1,14.51 -47.8,28.01 -80.1,40.56 -32.3,12.51 -70.9,18.79 -115.7,18.79 -69.9,0 -131.6,-12.85 -184.9,-38.57 -53.4,-25.71 -99,-61.31 -136.5,-106.82 -37.6,-45.48 -66,-99.87 -85.1,-163.17 -19.1,-63.29 -28.7,-131.86 -28.7,-205.69 0,-73.86 9.6,-142.41 28.7,-205.7 19.1,-63.3 47.5,-117.699 85.1,-163.179 37.5,-45.493 83.1,-81.09 136.5,-106.801 53.3,-25.719 115,-38.578 184.9,-38.578 44.8,0 83.4,6.269 115.7,18.789 32.3,12.508 59,26.027 80.1,40.551 23.7,17.128 44.2,36.898 61.3,59.339 h 19.8 l 19.8,-79.121 19.7,-19.781 h 138.5 l 19.8,19.781 v 1344.97 z m -4835.87,-39.56 c -34.3,0 -68.25,-4.94 -101.87,-14.84 -33.61,-9.88 -63.3,-25.4 -88.99,-46.48 -25.73,-21.1 -46.49,-47.8 -62.31,-80.1 -15.83,-32.32 -23.74,-70.89 -23.74,-115.71 v -79.11 l -19.77,-19.78 h -138.46 l -19.78,-19.78 v -138.45 l 19.78,-19.78 h 138.46 l 19.77,-19.78 V 694.32 l 19.79,-19.781 h 158.23 l 19.77,19.781 v 771.38 l 19.77,19.78 h 197.8 l 19.78,19.78 v 138.45 l -19.78,19.78 h -197.8 l -19.77,19.78 v 79.11 c 0,30.32 8.23,51.08 24.72,62.31 16.48,11.19 34.62,16.81 54.4,16.81 h 158.23 l 19.77,19.78 v 138.45 l -19.77,19.78 z M 8537.27,918.82 c -47.47,-57.371 -116.05,-86.05 -205.71,-86.05 -89.67,0 -158.22,28.679 -205.69,86.05 -47.46,57.34 -71.2,140.73 -71.2,250.19 0,109.44 23.74,192.84 71.2,250.2 47.47,57.36 116.02,86.04 205.69,86.04 89.66,0 158.24,-28.68 205.71,-86.04 47.47,-57.36 71.2,-140.76 71.2,-250.2 0,-109.46 -23.73,-192.85 -71.2,-250.19 z m 142.41,625.99 c -40.89,44.81 -90.67,79.12 -149.35,102.86 -58.66,23.73 -124.93,35.6 -198.77,35.6 -73.85,0 -140.11,-11.87 -198.77,-35.6 -58.68,-23.74 -108.47,-58.05 -149.33,-102.86 -40.88,-44.84 -72.19,-98.9 -93.95,-162.18 -21.76,-63.3 -32.63,-134.5 -32.63,-213.62 0,-79.12 10.87,-150.32 32.63,-213.612 21.76,-63.296 53.07,-117.367 93.95,-162.187 40.86,-44.832 90.65,-79.121 149.33,-102.859 58.66,-23.723 124.92,-35.59 198.77,-35.59 73.84,0 140.11,11.867 198.77,35.59 58.68,23.738 108.46,58.027 149.35,102.859 40.85,44.82 72.19,98.891 93.94,162.187 21.77,63.292 32.65,134.492 32.65,213.612 0,79.12 -10.88,150.32 -32.65,213.62 -21.75,63.28 -53.09,117.34 -93.94,162.18 z m 2589.02,-296.68 h -435.1 l -19.8,19.78 c 0,14.49 2.3,35.26 6.9,62.3 4.6,27.02 14.8,53.41 30.7,79.12 15.8,25.71 39.5,48.12 71.2,67.24 31.6,19.11 74.4,28.69 128.5,28.69 54.1,0 96.9,-9.58 128.6,-28.69 31.6,-19.12 55.4,-41.53 71.2,-67.24 15.8,-25.71 26,-52.1 30.6,-79.12 4.7,-27.04 7,-47.81 7,-62.3 z m 128.6,281.85 c -37,46.79 -84.1,84.06 -141.5,111.75 -57.3,27.69 -125.6,41.54 -204.7,41.54 -79.1,0 -147.3,-13.85 -204.7,-41.54 -57.3,-27.69 -104.5,-64.96 -141.4,-111.75 -36.9,-46.82 -64.3,-101.55 -82.1,-164.16 -17.8,-62.65 -26.7,-128.25 -26.7,-196.8 0,-73.87 9.9,-142.42 29.7,-205.711 19.8,-63.289 49.4,-117.688 89,-163.168 39.5,-45.5 89,-81.102 148.3,-106.813 59.4,-25.707 128.6,-38.566 207.7,-38.566 59.3,0 112.4,7.91 159.2,23.738 46.8,15.828 87.1,37.578 120.7,65.27 33.6,27.679 60,59.332 79.1,94.929 19.1,35.61 31.3,73.192 36.6,112.742 l -19.8,19.778 h -158.2 l -19.8,-19.778 c -10.6,-25.062 -22.8,-45.171 -36.6,-60.312 -13.8,-15.188 -29.7,-27.051 -47.5,-35.617 -17.8,-8.582 -36.3,-14.524 -55.3,-17.793 -19.2,-3.309 -38.6,-4.949 -58.4,-4.949 -59.3,0 -106.2,10.539 -140.4,31.652 -34.3,21.066 -60,45.148 -77.2,72.187 -17.1,27.012 -28,53.411 -32.6,79.121 -4.6,25.71 -6.9,43.83 -6.9,54.39 l 19.8,19.78 h 652.7 l 19.7,19.78 v 59.34 c 0,68.55 -8.9,134.15 -26.7,196.8 -17.8,62.61 -45.1,117.34 -82,164.16 z m -9048.69,560.26 c -34.29,21.36 -77.43,21.99 -112.24,1.89 L 218.191,926.93 v 167.96 L 1981.82,2113.13 c 34.82,20.1 55.84,57.79 54.49,98.17 -1.29,38.18 -23.18,72.7 -56.27,91.81 l -361.85,208.91 c -33.76,19.49 -75.34,19.49 -109.1,0 L 218.191,1766.72 v 167.96 l 1109.089,640.34 c 40.4,23.32 40.4,81.64 0,104.96 l -69.7,40.24 c -35.63,20.57 -79.53,20.57 -115.15,0 L 54.5508,2092.13 C 20.8008,2072.64 0,2036.63 0,1997.66 v -417.83 c 0,-38.21 18.9609,-74.44 51.3867,-94.64 34.3047,-21.37 77.4413,-22 112.2543,-1.9 L 1563.64,2291.58 1709.09,2207.6 54.5508,1252.35 C 20.8008,1232.86 0,1196.85 0,1157.88 V 740.051 C 0,701.828 18.9609,665.609 51.3867,645.398 85.6914,624.039 128.828,623.422 163.641,643.512 L 2181.82,1808.71 V 1640.75 L 418.191,622.512 c -33.75,-19.473 -54.55,-55.5 -54.55,-94.461 0,-38.992 20.8,-74.992 54.55,-94.492 L 781.816,223.621 c 33.762,-19.492 75.344,-19.492 109.094,0 L 2181.82,968.93 V 800.98 L 1072.73,160.641 c -40.4,-23.332 -40.4,-81.6527 0,-104.9808 l 69.7,-40.2383 c 35.63,-20.57034 79.52,-20.57034 115.15,0 L 2345.46,643.512 c 33.75,19.5 54.54,55.5 54.54,94.468 v 417.83 c 0,38.22 -18.95,74.44 -51.39,94.65 -34.29,21.36 -77.43,21.99 -112.24,1.89 L 836.367,444.059 690.91,528.051 2345.46,1483.29 c 33.75,19.49 54.54,55.5 54.54,94.47 v 417.85 c 0,38.2 -18.95,74.42 -51.39,94.63 z M 10200.7,911.879 c -46.2,-52.738 -108.8,-79.117 -187.9,-79.117 -79.17,0 -141.8,28.687 -187.95,86.047 -46.18,57.363 -69.22,140.751 -69.22,250.211 0,109.43 23.04,192.84 69.22,250.2 46.15,57.35 108.78,86.04 187.95,86.04 79.1,0 141.7,-26.4 187.9,-79.12 46.1,-52.75 69.2,-138.45 69.2,-257.12 0,-118.68 -23.1,-204.411 -69.2,-257.141 z m 108.7,751.611 -19.8,-19.78 -19.7,-79.11 h -19.8 c -17.2,22.4 -37.6,42.18 -61.3,59.32 -21.1,14.51 -47.8,28.01 -80.1,40.55 -32.4,12.52 -70.9,18.8 -115.73,18.8 -69.9,0 -131.52,-12.86 -184.93,-38.57 -53.39,-25.71 -98.9,-61.31 -136.48,-106.81 -37.57,-45.49 -65.94,-99.88 -85.05,-163.18 -19.13,-63.29 -28.68,-131.86 -28.68,-205.69 0,-73.86 9.55,-142.41 28.68,-205.7 19.11,-63.3 47.48,-117.699 85.05,-163.179 37.58,-45.5 83.09,-81.102 136.48,-106.801 53.41,-25.719 115.03,-38.59 184.93,-38.59 44.83,0 83.33,6.281 115.73,18.801 32.3,12.508 59,26.027 80.1,40.551 23.7,17.117 44.1,36.898 61.3,59.339 h 19.8 c 0,-109.429 -20.5,-192.863 -61.3,-250.203 -40.9,-57.359 -106.2,-86.047 -195.8,-86.047 -50.17,0 -90.73,6.618 -121.69,19.778 -31.01,13.191 -56.37,39.562 -76.15,79.109 l -19.77,19.793 h -158.25 l -19.77,-19.793 c 10.54,-79.109 49.11,-145.039 115.71,-197.777 66.56,-52.723 159.87,-79.121 279.92,-79.121 59.3,0 116.3,9.25 171,27.679 54.7,18.5 103.2,48.813 145.4,91 42.2,42.211 75.8,97.25 100.9,165.153 25,67.929 37.6,151.308 37.6,250.207 v 850.491 l -19.8,19.78 z m -899.89,0 c -34.3,0 -64.27,-2.32 -89.99,-6.93 -25.72,-4.63 -48.45,-11.21 -68.24,-19.77 -19.77,-8.59 -37.58,-19.14 -53.41,-31.65 -15.82,-12.55 -30.98,-26.05 -45.49,-40.54 h -19.77 l -19.78,79.11 -19.78,19.78 h -138.46 l -19.77,-19.78 V 694.32 l 19.77,-19.781 h 158.24 l 19.78,19.781 v 494.48 c 0,59.33 5.93,108.1 17.79,146.36 11.87,38.23 29.01,68.54 51.44,90.98 22.4,22.41 49.44,37.89 81.08,46.48 31.65,8.56 67.26,12.86 106.81,12.86 h 98.9 l 19.78,19.78 v 138.45 l -19.78,19.78 z m -2600.92,-435.14 276.91,276.91 v 138.45 l -19.78,19.78 h -59.33 l -39.56,-19.78 -454.91,-454.92 h -19.78 v 850.5 l -19.78,19.78 h -158.23 l -19.78,-19.78 V 694.32 l 19.78,-19.781 h 158.23 l 19.78,19.781 v 197.789 l 19.78,39.563 138.45,138.448 h 19.78 l 296.68,-375.8 39.56,-19.781 h 79.11 l 19.77,19.781 v 138.45 l -296.68,375.8 z m -721.91,435.14 c -34.31,0 -64.28,-2.32 -89.99,-6.93 -25.72,-4.63 -48.46,-11.21 -68.24,-19.77 -19.78,-8.59 -37.58,-19.14 -53.41,-31.65 -15.82,-12.55 -30.99,-26.05 -45.49,-40.54 h -19.77 l -19.78,79.11 -19.78,19.78 h -138.46 l -19.78,-19.78 V 694.32 l 19.78,-19.781 H 5790 l 19.78,19.781 v 494.48 c 0,59.33 5.92,108.1 17.79,146.36 11.87,38.23 28.99,68.54 51.43,90.98 22.41,22.41 49.45,37.89 81.1,46.48 31.64,8.56 67.24,12.86 106.8,12.86 h 98.9 l 19.77,19.78 v 138.45 l -19.77,19.78 z m -840.6,-632.92 c 0,-59.351 -23.09,-107.14 -69.24,-143.41 -46.16,-36.281 -108.78,-54.39 -187.9,-54.39 -59.33,0 -103.83,10.539 -133.5,31.652 -29.67,21.066 -44.5,56.68 -44.5,106.797 0,50.101 20.42,89.011 61.31,116.701 40.85,27.69 106.14,41.53 195.81,41.53 25.03,0 47.13,-0.97 66.26,-2.96 19.1,-1.98 35.92,-4.29 50.43,-6.92 15.83,-3.96 29.68,-7.27 41.55,-9.89 l 19.78,-19.78 z m 111.74,545.89 c -30.99,35.6 -71.88,62.3 -122.62,80.1 -50.77,17.8 -113.07,26.7 -186.92,26.7 -73.85,0 -136.15,-8.9 -186.92,-26.7 -50.76,-17.8 -91.66,-40.88 -122.62,-69.22 -30.99,-28.37 -53.08,-60.33 -66.26,-95.94 -13.19,-35.59 -19.78,-70.55 -19.78,-104.82 l 19.78,-19.78 h 158.24 l 19.77,19.78 c 0,39.56 15.48,69.23 46.49,89.01 30.96,19.77 81.41,29.66 151.3,29.66 69.89,0 120.32,-12.2 151.31,-36.59 30.97,-24.41 46.49,-71.54 46.49,-141.42 v -39.55 l -19.78,-19.78 c -15.83,2.62 -32.98,5.93 -51.43,9.89 -15.82,2.62 -34.61,4.94 -56.38,6.92 -21.74,1.98 -45.18,2.97 -70.21,2.97 -64.62,0 -123.61,-6.28 -177.02,-18.8 -53.4,-12.54 -99.24,-31.64 -137.46,-57.35 -38.27,-25.71 -67.92,-58.7 -89.01,-98.89 -21.11,-40.24 -31.63,-87.37 -31.63,-141.431 0,-98.891 28.67,-176.36 86.03,-232.399 57.35,-56.058 140.74,-84.058 250.21,-84.058 50.08,0 92.27,6.277 126.57,18.789 34.29,12.519 62.62,26.019 85.06,40.539 25.04,17.129 46.78,36.91 65.27,59.359 h 19.78 l 19.77,-79.121 19.78,-19.789 h 138.45 l 19.78,19.789 v 553.802 c 0,73.83 -6.62,138.11 -19.78,192.84 -13.19,54.71 -35.28,99.88 -66.26,135.49 z M 4207.49,2060.64 4187.7,2040.86 3732.41,932.328 h -19.79 l -455.29,1108.532 -19.79,19.78 H 3019.79 L 3000,2040.86 V 694.789 l 19.79,-19.777 h 158.36 l 19.8,19.777 v 950.171 h 19.79 l 395.9,-950.171 19.8,-19.777 h 178.15 l 19.8,19.777 395.89,950.171 h 19.8 V 694.789 l 19.79,-19.777 h 158.36 l 19.79,19.777 V 2040.86 l -19.79,19.78 h -217.74"
         style="fill:#ffffff;fill-opacity:1;fill-rule:nonzero;stroke:none"
         transform="matrix(0.13333333,0,0,-0.13333333,0,364.76)" />
    </g>
  </g>
</svg>
