<svg version="1.2" xmlns="http://www.w3.org/2000/svg" viewBox="0 0 1546 291" width="1546" height="291">
	<title>ETTE-svg</title>
	<defs>
		<clipPath clipPathUnits="userSpaceOnUse" id="cp1">
			<path d="m1545.42-1v293h-1544.84v-293z"/>
		</clipPath>
	</defs>
	<style>
		.s0 { fill: #000000 } 
	</style>
	<g id="Clip-Path" clip-path="url(#cp1)">
		<g>
			<path class="s0" d="m268.7 98.8l0.2-0.3c-3.5-12.4-9.1-24.7-16.7-36.1-41.1-63.2-125.9-81.3-189.3-40.2-63.3 41.2-81.5 126.1-40.1 189.5 41.1 63.4 126 81.3 189.3 40.1 37.6-24.5 59.3-64.1 62.1-105.5l-94.7 61.3c-37.8 22.5-86.8 11.4-110.8-25.7-24.7-38.2-13.9-88.9 24.3-113.7 38.1-24.8 88.8-13.9 113.6 24.3 5.8 9 9.8 18.9 11.6 28.7l-43.2 27.8c3.5-10.8 2.3-23.2-4.5-33.6-11.9-18.1-36.4-23.5-54.6-11.6-18.1 11.9-23.4 36.4-11.6 54.6 11.6 17.7 35.1 23.2 53 12.4z"/>
		</g>
	</g>
	<path fill-rule="evenodd" class="s0" d="m1545.4 236.2h-34.6v-94.2c0-30.8-16.9-46.7-42.1-46.7-25.5 0-42.4 15.9-42.4 46.7v94.2h-34.9v-168.5h34.9v19.2c11.1-13.6 29.8-22 50-22 39.6 0 69.1 24.8 69.1 71.8zm-217.1-25.3c-10.8 14.4-31 27.8-59 27.8-43.7 0-78.8-35.6-78.8-87.6 0-51.8 35.3-86.2 79.5-86.2 28.3 0 48 13.7 58.3 27.3v-24.5h35.1v168.2h-35.1zm-51-115.9c-26 0-51 19.4-51 55.8 0 36.4 25 57.6 51 57.6 26.3 0 51-20.5 51-56.8 0-35.9-24.7-56.6-51-56.6zm-239.3 144c-27.7 0-47.4-14.2-58.5-27.3v79h-34.9v-223h35.1v24.8c10.6-14.2 31.1-27.6 58.6-27.6 44.2 0 79 34.1 79 86.2 0 52-34.8 87.6-79.3 87.9zm-7.5-143.8c-26 0-51 20.5-51 56.6 0 36.4 25 56.9 51 56.9 26.2 0 51.2-21.3 51.2-57.6 0-36.4-25-56.1-51.2-55.9zm-235.5 69.5c2.5 27.8 22.2 44.7 47.9 44.7 21.2 0 33.3-10.3 39.6-23.5h37.7c-9.4 29.3-36.1 52.8-77.3 52.8-48.2 0-84-34.3-84-87.1 0-53.1 34.3-86.9 84-86.9 48 0 81.8 33.3 81.8 82.8 0 5.8-0.2 11.4-1.3 17.2zm46.5-70.5c-23.5 0-42.4 16-46.2 42.5h93.1c-0.7-26-21.2-42.5-46.9-42.5zm-161.3 95.3v-93.2h-20v-28.6h20v-41.9h35.1v41.9h40.9v28.3h-40.9v93.2c0 12.4 4.8 17.7 19.4 17.7h21.5v29h-27.6c-29.7 0-48.4-12.3-48.4-46.4zm-105 0v-93.2h-20v-28.6h20v-41.9h35.1v41.9h40.9v28.3h-40.9v93.2c0 12.4 4.8 17.7 19.4 17.7h21.5v29h-27.6c-29.7 0-48.4-12.3-48.4-46.4zm-154.3-24.8c2.6 27.8 22.3 44.7 48 44.7 21.2 0 33.3-10.3 39.6-23.5h37.6c-9.3 29.3-36.1 52.8-77.2 52.8-48.2 0-84.1-34.3-84.1-87.1 0-53.1 34.4-86.9 84.1-86.9 48 0 81.8 33.3 81.8 82.8 0 5.8-0.3 11.4-1.3 17.2zm46.2-70.5c-23.5 0-42.4 16-46.2 42.5h93.2c-0.5-26-21-42.5-47-42.5zm703.5-68.2v210.2h-34.8v-210.2z"/>
</svg>