<?xml version="1.0" encoding="UTF-8" standalone="no"?>
<!-- Created with Inkscape (http://www.inkscape.org/) -->

<svg
   version="1.1"
   id="svg1"
   width="1112.4532"
   height="534.66669"
   viewBox="0 0 1112.4532 534.66669"
   sodipodi:docname="logo_T_black_vector.eps"
   xmlns:inkscape="http://www.inkscape.org/namespaces/inkscape"
   xmlns:sodipodi="http://sodipodi.sourceforge.net/DTD/sodipodi-0.dtd"
   xmlns="http://www.w3.org/2000/svg"
   xmlns:svg="http://www.w3.org/2000/svg">
  <defs
     id="defs1" />
  <sodipodi:namedview
     id="namedview1"
     pagecolor="#ffffff"
     bordercolor="#000000"
     borderopacity="0.25"
     inkscape:showpageshadow="2"
     inkscape:pageopacity="0.0"
     inkscape:pagecheckerboard="0"
     inkscape:deskcolor="#d1d1d1">
    <inkscape:page
       x="0"
       y="0"
       inkscape:label="1"
       id="page1"
       width="1112.4532"
       height="534.66669"
       margin="0"
       bleed="0" />
  </sodipodi:namedview>
  <g
     id="g1"
     inkscape:groupmode="layer"
     inkscape:label="1">
    <g
       id="group-R5">
      <path
         id="path2"
         d="M 2462.48,1998.21 C 2628.1,1593.87 2572.82,1055.89 2210.63,663.469 1834.06,255.469 1250.12,139.129 757.41,352.398 268.992,563.809 31.6914,1023.49 0,1377.83 46.293,1335.58 90.5195,1292.7 137.367,1252.89 342.211,1078.85 570.57,949.07 836.574,895.789 c 418.706,-83.879 800.096,5.313 1141.376,259.921 193.72,144.53 336.91,331.15 431.04,554.13 38.74,91.78 54.87,188.49 53.49,288.37"
         style="fill:#ffffff;fill-opacity:1;fill-rule:nonzero;stroke:none"
         transform="matrix(0.13333333,0,0,-0.13333333,0,534.66667)" />
      <path
         id="path3"
         d="m 1582.05,2576.51 c 72.03,76.07 144.75,152.27 216.17,229.67 4.67,5.06 1.8,20.51 -2.09,29.07 -3.7,8.15 -13.95,13.08 -20.25,20.35 -16.59,19.15 -30.25,17.01 -47.06,-1.42 -49.54,-54.31 -100.83,-107.02 -150.82,-160.93 -51.62,-55.67 -51.3,-55.97 -0.53,-113.94 0.59,-0.67 1.59,-0.99 4.58,-2.8 z m 270.86,-1418.64 c -85.33,90.31 -170.38,180.29 -255.4,270.29 -23.93,25.33 -47.52,50.97 -71.81,75.94 -14.41,14.82 -16.73,28.25 -2.74,45.51 31.04,38.3 60.94,77.53 90.72,116.84 14.26,18.81 29.66,18.11 50.76,10.99 43.58,-14.7 87.88,-33.61 132.84,-36.65 152.58,-10.29 261.17,81.65 283.81,233.13 23.45,156.95 -71.4,289.78 -228.09,310.56 -119.4,15.83 -222.25,-24.03 -307.68,-109.96 -85.27,-85.78 -171.95,-170.16 -258.31,-254.86 -24,-23.55 -31.31,-23.17 -55.11,0.51 -57.63,57.34 -115.24,114.69 -172.53,172.37 -24.6,24.77 -24.37,30.18 -0.75,54.53 18.87,19.44 37.47,39.2 57.13,57.82 14.96,14.18 15.54,25.9 1.09,41.49 -34.13,36.81 -40.1,37.47 -75.78,1.66 -14.34,-14.39 -28.67,-28.81 -43.423,-42.78 -14.91,-14.11 -30.957,-15.61 -46.203,-0.85 -41.004,39.71 -81.973,79.46 -122.25,119.89 -15.797,15.86 -5.989,29.85 6.461,42.54 58.937,60.12 117.757,120.35 176.775,180.39 261.21,265.7 522.42,531.38 783.75,796.95 35.76,36.35 37.99,36.24 73.07,-0.02 138.62,-143.27 277.21,-286.57 415.58,-430.09 51.88,-53.8 56.39,-85.11 24.99,-153.93 -28.27,-61.96 -71.83,-111.74 -122,-156.62 -36.19,-32.38 -36.09,-37.5 -2.84,-70.98 202.56,-203.99 251.42,-498.46 124.99,-756.45 -99.91,-203.87 -242.86,-371.16 -428.68,-501.72 -6.33,-4.45 -12.68,-8.86 -19.14,-13.11 -1.54,-1.02 -3.53,-1.34 -9.23,-3.39"
         style="fill:#ffffff;fill-opacity:1;fill-rule:nonzero;stroke:none"
         transform="matrix(0.13333333,0,0,-0.13333333,0,534.66667)" />
      <path
         id="path4"
         d="m 1310.69,151.27 c 569.42,45.449 995.54,314.839 1219.7,847.48 224.91,534.41 108.37,1026.01 -255.48,1466.95 15.08,14.51 30.21,29.07 49.59,47.69 479.03,-188.31 787.91,-529.27 856.25,-1047.03 C 3253.04,918.57 3038.85,485.16 2572.3,188.941 2157.35,-74.5313 1645.4,-38.8711 1310.69,151.27"
         style="fill:#ffffff;fill-opacity:1;fill-rule:nonzero;stroke:none"
         transform="matrix(0.13333333,0,0,-0.13333333,0,534.66667)" />
      <path
         id="path5"
         d="m 2356.42,2589.72 c 62.36,103.87 74.62,203.44 -25.94,293.6 450.93,63.72 1126.31,-192.92 1347.17,-892.97 215.63,-683.45 -166.48,-1342.862 -725.88,-1570.041 287.81,370.211 387.79,782.681 264.06,1236.121 -124.05,454.64 -422.03,758.01 -859.41,933.29"
         style="fill:#ffffff;fill-opacity:1;fill-rule:nonzero;stroke:none"
         transform="matrix(0.13333333,0,0,-0.13333333,0,534.66667)" />
      <path
         id="path6"
         d="m 3823.83,1525.3 c 13.33,362.37 -88.31,682.22 -318.61,957.07 -213.99,255.4 -486.96,412.47 -815.55,471.61 -136.26,24.52 -272.98,25.84 -410.26,10.3 -8.93,-1.01 -21.61,2.15 -27.59,8.24 -87.32,89.02 -173.81,178.86 -260.63,268.63 389.94,287.98 1062.65,347.81 1563.81,-82.72 512.28,-440.09 565.36,-1147.44 268.83,-1633.13"
         style="fill:#ffffff;fill-opacity:1;fill-rule:nonzero;stroke:none"
         transform="matrix(0.13333333,0,0,-0.13333333,0,534.66667)" />
      <path
         id="path7"
         d="m 1939.23,3299.74 c -2.47,0.96 -3.56,1.09 -4.23,1.69 -79.89,71.89 -124.24,70.16 -199.52,-6.75 -138.07,-141.09 -276.42,-281.9 -414.69,-422.8 -3.76,-3.83 -7.81,-7.37 -13.61,-12.81 54.86,592.73 556.37,1125.52 1228.67,1150.01 722.18,26.31 1230.94,-517.09 1316.39,-1057.79 -222.51,308.03 -514.34,503.4 -885.63,570.76 -371.61,67.44 -713.49,-12.19 -1027.38,-222.31"
         style="fill:#ffffff;fill-opacity:1;fill-rule:nonzero;stroke:none"
         transform="matrix(0.13333333,0,0,-0.13333333,0,534.66667)" />
      <path
         id="path8"
         d="m 6569.71,1716.91 c -44.36,0 -85.81,0 -133.84,0 3.49,140.45 6.96,280.02 10.44,419.6 -1.07,0.47 -2.13,0.94 -3.21,1.41 -40.87,-140.03 -81.73,-280.05 -122.8,-420.74 -29.88,0 -58.76,0 -91.25,0 -40.69,139.57 -81.64,279.98 -122.59,420.39 -1.32,-0.13 -2.62,-0.26 -3.94,-0.39 4.18,-138.81 8.36,-277.61 12.61,-418.78 -46.68,0 -89.51,0 -134.04,0 0,215.36 0,430.58 0,649.9 54.23,0 107.98,0.83 161.62,-1.19 5.89,-0.22 13.73,-16.2 16.34,-26.02 35.64,-134.41 70.48,-269.04 105.62,-403.59 2.17,-8.3 5.09,-16.42 10.37,-33.22 5.36,17.67 8.83,27.86 11.54,38.23 34.89,133.62 70.22,267.13 103.91,401.06 5.12,20.37 13.7,26.04 33.49,25.52 48.06,-1.25 96.17,-0.4 145.73,-0.4 0,-218.66 0,-433.93 0,-651.78"
         style="fill:#ffffff;fill-opacity:1;fill-rule:nonzero;stroke:none"
         transform="matrix(0.13333333,0,0,-0.13333333,0,534.66667)" />
      <path
         id="path9"
         d="m 5688.82,3185.96 c 45.48,0 87.58,0 131.47,0 0,-216.37 0,-431.64 0,-650.77 -41.04,0 -82.28,-1.01 -123.38,1.02 -6.66,0.33 -14.7,13.26 -18.64,21.93 -56.4,123.9 -112.19,248.08 -168.16,372.17 -2.37,5.26 -5,10.38 -11.94,15.43 0,-135.86 0,-271.73 0,-409.12 -46.02,0 -88.14,0 -132.33,0 0,216.01 0,431.95 0,650.78 40.63,0 80.13,1.23 119.44,-1.04 7.86,-0.46 17.78,-12.98 21.96,-22.13 54.97,-120.31 109.07,-241.02 163.43,-361.61 4.25,-9.4 8.91,-18.61 18.15,-27.28 0,136.35 0,272.7 0,410.62"
         style="fill:#ffffff;fill-opacity:1;fill-rule:nonzero;stroke:none"
         transform="matrix(0.13333333,0,0,-0.13333333,0,534.66667)" />
      <path
         id="path10"
         d="m 7108.27,1543.83 c 40.26,0 79.75,1.44 118.96,-1.15 8.37,-0.56 18.61,-14.48 23.17,-24.45 54.68,-119.38 108.43,-239.2 162.46,-358.87 4.27,-9.46 8.91,-18.75 18,-27.61 0,136.26 0,272.52 0,410.49 45.54,0 87.64,0 131.64,0 0,-215.97 0,-431.24 0,-650.638 -40.67,0 -81.88,-1 -122.94,1.007 -6.73,0.332 -14.93,13.032 -18.85,21.641 -55.16,121.28 -109.69,242.85 -164.45,364.32 -3.75,8.3 -8.17,16.29 -16.9,23.36 0,-135.7 0,-271.39 0,-408.782 -44.65,0 -86.77,0 -131.09,0 0,215.652 0,431.572 0,650.682"
         style="fill:#ffffff;fill-opacity:1;fill-rule:nonzero;stroke:none"
         transform="matrix(0.13333333,0,0,-0.13333333,0,534.66667)" />
      <path
         id="path11"
         d="m 5532.82,2062.72 c 52.12,7.73 110.89,-18.57 141.63,44.73 19.39,39.93 11.5,106.2 -14.03,131.7 -20.62,20.6 -95.59,28.3 -127.6,13.22 0,-61.67 0,-123.23 0,-189.65 z m 306.99,-346.55 c -47.04,0 -89.39,-0.88 -131.64,0.84 -7.33,0.31 -17.45,10.22 -20.82,18.04 -25.98,60.28 -52.24,120.55 -74.98,182.09 -10.62,28.75 -25.04,43.12 -56.19,37.29 -6.48,-1.21 -13.4,-0.17 -23.31,-0.17 0,-78.9 0,-156.65 0,-236.24 -45.27,0 -87.4,0 -131.89,0 0,215.09 0,430.97 0,650.67 69.68,0 138.98,0.82 208.24,-0.41 26.83,-0.48 54.54,-2.17 80.19,-9.26 66.09,-18.25 109.37,-61.67 121.64,-129.93 17.15,-95.29 4.58,-181.77 -86.92,-241.46 38.08,-89.37 76.08,-178.54 115.68,-271.46"
         style="fill:#ffffff;fill-opacity:1;fill-rule:nonzero;stroke:none"
         transform="matrix(0.13333333,0,0,-0.13333333,0,534.66667)" />
      <path
         id="path12"
         d="m 6131.6,3079.55 c 0,-147.98 0,-290.61 0,-434.66 18.9,0 36.11,-0.7 53.25,0.14 53.02,2.6 91.49,28.2 94.67,79.79 5.63,91.08 4.01,182.89 -0.03,274.14 -1.75,39.48 -30.17,66.77 -70.79,74.18 -24.34,4.43 -49.51,4.28 -77.1,6.41 z m -133.28,-544.52 c 0,218.02 0,433.24 0,656.92 85.71,-4.79 171.72,-0.69 253.83,-16.62 87.81,-17.04 141.18,-84.34 158.26,-171.06 19.12,-97.11 20.85,-196.58 -1.81,-293.59 -25.05,-107.2 -114.05,-174.35 -223.89,-175.52 -61.65,-0.66 -123.3,-0.13 -186.39,-0.13"
         style="fill:#ffffff;fill-opacity:1;fill-rule:nonzero;stroke:none"
         transform="matrix(0.13333333,0,0,-0.13333333,0,534.66667)" />
      <path
         id="path13"
         d="m 6131,1000.94 c 15.47,0 27.96,-0.45 40.41,0.08 72.67,3.04 106.09,26.53 111.92,98.31 6.45,79.5 6.63,160.56 -1.21,239.88 -7.81,78.79 -73.15,113.49 -151.12,90.43 0,-141.77 0,-283.63 0,-428.7 z M 5998.27,891.621 c 0,218.219 0,433.459 0,655.089 80.34,-3 160.21,1.29 237.57,-10.69 96.62,-14.98 155.59,-82.28 174.59,-175.83 19.68,-96.95 20.77,-196.55 -1.91,-293.58 -24.01,-102.79 -107.63,-169.981 -212.72,-174.469 -64.66,-2.77 -129.53,-0.52 -197.53,-0.52"
         style="fill:#ffffff;fill-opacity:1;fill-rule:nonzero;stroke:none"
         transform="matrix(0.13333333,0,0,-0.13333333,0,534.66667)" />
      <path
         id="path14"
         d="m 5107.62,2052.79 c -4.95,41.24 -5.94,96.1 -19.16,147.83 -16.11,63.01 -88.84,86.71 -139.12,51.41 -28.33,-19.89 -42.6,-49.95 -43.83,-81.82 -3.19,-82.87 -3.02,-165.95 -1.31,-248.88 0.41,-20.23 9.53,-41.44 18.9,-60.04 13.55,-26.86 37.79,-40.41 68.25,-42.13 57.43,-3.24 93.81,22.59 104.01,82.09 7.79,45.44 7.8,92.22 12.26,151.54 z m 131.86,-18.8 c -3.56,-46.13 -2.44,-96.19 -12.1,-144.06 -24.38,-120.75 -106.76,-183.11 -232.29,-182.21 -116.36,0.82 -199.89,68.56 -220.59,189.8 -16.79,98.37 -17.94,198.82 2.83,297.2 26.32,124.71 111.33,186.58 243.88,182.94 104.59,-2.87 189.54,-81.1 207.66,-195.92 7.49,-47.49 7.16,-96.21 10.61,-147.75"
         style="fill:#ffffff;fill-opacity:1;fill-rule:nonzero;stroke:none"
         transform="matrix(0.13333333,0,0,-0.13333333,0,534.66667)" />
      <path
         id="path15"
         d="m 4759.79,3186.58 c 45.79,0 87.27,0 133.91,0 0,-11.82 0,-22.87 0,-33.92 0,-136.41 0,-272.83 0,-409.23 0,-7.74 -0.32,-15.5 0.16,-23.22 4.32,-69.97 50.29,-101.24 117.76,-80.32 29.18,9.05 39.76,32.35 43.73,59.33 2.8,19.05 3.61,38.52 3.66,57.81 0.29,130.6 0.16,261.21 0.16,391.81 0,11.4 0,22.8 0,36.45 44.81,0 86.65,0 130.03,0 0.88,-5.62 2.22,-10.2 2.21,-14.77 -0.45,-151.86 0.81,-303.76 -2.17,-455.57 -2.18,-110.17 -68.49,-177.82 -178.31,-186.48 -32.47,-2.56 -66.29,-2.55 -98.11,3.53 -99.62,19.01 -152.2,89.55 -152.83,202.13 -0.77,134.47 -0.19,268.95 -0.2,403.42 0,15.3 0,30.59 0,49.03"
         style="fill:#ffffff;fill-opacity:1;fill-rule:nonzero;stroke:none"
         transform="matrix(0.13333333,0,0,-0.13333333,0,534.66667)" />
      <path
         id="path16"
         d="m 5400.83,1543.04 c 43.83,0 85.3,0 131.72,0 0,-11.98 0,-23.09 0,-34.19 0,-136.41 0,-272.82 0,-409.23 0,-7.74 -0.33,-15.51 0.16,-23.21 4.44,-69.88 50.67,-101.172 117.97,-80.031 29.13,9.151 39.63,32.511 43.55,59.491 2.77,19.05 3.58,38.53 3.63,57.81 0.29,130.61 0.16,261.21 0.16,391.82 0,11.38 0,22.74 0,36.3 44.99,0 86.81,0 130.34,0 0.78,-6.9 1.99,-12.44 1.97,-17.99 -0.48,-150.89 0.75,-301.82 -2.26,-452.67 -2.18,-109.921 -68.74,-177.601 -178.52,-186.32 -31.54,-2.511 -64.24,-2.39 -95.29,2.969 -89.7,15.52 -147.53,71.461 -151.6,168.341 -6.74,161.04 -1.83,322.56 -1.83,486.91"
         style="fill:#ffffff;fill-opacity:1;fill-rule:nonzero;stroke:none"
         transform="matrix(0.13333333,0,0,-0.13333333,0,534.66667)" />
      <path
         id="path17"
         d="m 6740.22,2366.91 c 46.26,0 88.44,0 133.9,0 0,-12.12 0,-22.5 0,-32.87 0,-136.41 0,-272.81 0.01,-409.22 0,-7.75 -0.31,-15.5 0.15,-23.22 4.2,-70.09 49.87,-101.36 117.51,-80.67 29.21,8.93 39.93,32.16 43.95,59.14 2.83,19.03 3.64,38.51 3.69,57.8 0.3,130.6 0.16,261.21 0.16,391.82 0,11.43 0,22.87 0,36.62 44.62,0 86.45,0 129.83,0 0.92,-5.29 2.4,-9.85 2.39,-14.4 -0.43,-151.86 0.84,-303.76 -2.15,-455.57 -2.17,-110.43 -68.25,-178.01 -178.03,-186.73 -32.48,-2.59 -66.29,-2.59 -98.12,3.45 -99.66,18.87 -152.42,89.43 -153.09,201.91 -0.8,130.6 -0.2,261.21 -0.2,391.81 0,19.2 0,38.39 0,60.13"
         style="fill:#ffffff;fill-opacity:1;fill-rule:nonzero;stroke:none"
         transform="matrix(0.13333333,0,0,-0.13333333,0,534.66667)" />
      <path
         id="path18"
         d="m 8136.98,1961.1 c -19.37,73.73 -38.13,145.11 -56.88,216.49 -2.16,-0.12 -4.32,-0.24 -6.47,-0.36 -18.76,-71.45 -37.52,-142.9 -56.74,-216.13 40.49,0 78.54,0 120.09,0 z m -324.29,-243.68 c 34.67,111.41 68.18,219.18 101.77,326.93 30.76,98.65 62.12,197.13 92.06,296.03 6.19,20.49 14.6,30.86 37.8,28.81 24.97,-2.21 50.37,0.72 75.38,-1.26 8.2,-0.65 20.66,-8.06 22.88,-15.02 67.13,-210.59 133.23,-421.51 200.82,-636.62 -45.53,0 -88.4,-0.59 -131.21,0.77 -5.2,0.17 -12.66,10.11 -14.62,16.82 -10.84,37.07 -20.31,74.53 -31.27,115.75 -55.18,0 -110.95,0.57 -166.66,-0.84 -5.79,-0.15 -14.24,-11.11 -16.43,-18.54 -10.93,-37.02 -20.17,-74.52 -30.27,-112.83 -46.02,0 -91.2,0 -140.25,0"
         style="fill:#ffffff;fill-opacity:1;fill-rule:nonzero;stroke:none"
         transform="matrix(0.13333333,0,0,-0.13333333,0,534.66667)" />
      <path
         id="path19"
         d="m 4253.83,1097.38 c 44.87,0 86.95,0 130.58,0 0.95,-8.81 1.84,-16.25 2.55,-23.72 5.92,-62.01 46.88,-93.301 108.07,-82.301 25.04,4.493 43.35,18.221 48.87,43.461 7.28,33.2 8.22,67.87 -21.66,90.51 -23.46,17.8 -51.69,29.4 -78.1,43.21 -29.03,15.18 -60.1,27.15 -87.3,45.04 -75.05,49.39 -104.54,127.54 -81.84,208.65 20.33,72.62 89.32,124.63 174.1,130.4 45.92,3.12 90.87,-1.01 132.58,-22.84 63.93,-33.47 98.58,-94.74 98.61,-178.47 -20.71,0 -41.53,-0.01 -62.34,-0.01 -21.18,0 -42.37,0.01 -65,0.01 -2.47,11.6 -4.59,21.71 -6.79,31.81 -8.09,37.19 -28.62,57.9 -60.33,60.85 -39.28,3.68 -66.58,-10.33 -78.62,-40.31 -13.63,-33.99 -5.81,-66.93 25.98,-89.76 21.73,-15.61 46.73,-26.83 70.79,-38.96 24.96,-12.58 51.73,-21.91 75.67,-36.11 83.25,-49.38 116.9,-127.37 97.06,-222.36 -9.83,-47.031 -36.26,-82.621 -77.97,-106.691 -80.91,-46.687 -210.85,-33.609 -280.43,29.012 -45.86,41.269 -66.26,93.519 -64.48,158.579"
         style="fill:#ffffff;fill-opacity:1;fill-rule:nonzero;stroke:none"
         transform="matrix(0.13333333,0,0,-0.13333333,0,534.66667)" />
      <path
         id="path20"
         d="m 6724.4,999.52 c 80.45,0 158.58,0 238.68,0 0,-36.211 0,-70.399 0,-106.34 -124.04,0 -247.28,0 -372.19,0 0,215.89 0,431.09 0,648.55 122.75,0 244.94,0 369.63,0 0,-34.39 0,-68.47 0,-106.07 -78.47,0 -156.3,0 -236.18,0 0,-53 0,-102.59 0,-155.3 66.42,0 132.61,0 200.39,0 0,-35.52 0,-67.99 0,-103.96 -65.98,0 -132.11,0 -200.33,0 0,-59.83 0,-116.21 0,-176.88"
         style="fill:#ffffff;fill-opacity:1;fill-rule:nonzero;stroke:none"
         transform="matrix(0.13333333,0,0,-0.13333333,0,534.66667)" />
      <path
         id="path21"
         d="m 4407.34,2092.15 c 66.5,0 131.91,0 199.53,0 0,-36.58 0,-70.78 0,-108.07 -65.96,0 -132.16,0 -201.57,0 0,-90.36 0,-177.77 0,-266.52 -45.35,0 -87.47,0 -131.47,0 0,215.75 0,430.92 0,648.61 118.27,0 236.57,0 357.58,0 0,-33.66 0,-67.76 0,-105.44 -73.88,0 -147.82,0 -224.07,0 0,-56.92 0,-110.41 0,-168.58"
         style="fill:#ffffff;fill-opacity:1;fill-rule:nonzero;stroke:none"
         transform="matrix(0.13333333,0,0,-0.13333333,0,534.66667)" />
      <path
         id="path22"
         d="m 5096.42,1435.2 c 0,-183.76 0,-362.28 0,-542.259 -44.56,0 -86.62,0 -131.46,0 0,179.479 0,357.949 0,540.019 -53.23,0 -103.88,0 -157.01,0 0,37.65 0,71.76 0,108.49 148.67,0 297.84,0 448.89,0 0,-34.15 0,-68.42 0,-106.25 -52.34,0 -104.02,0 -160.42,0"
         style="fill:#ffffff;fill-opacity:1;fill-rule:nonzero;stroke:none"
         transform="matrix(0.13333333,0,0,-0.13333333,0,534.66667)" />
      <path
         id="path23"
         d="m 7989.26,892.41 c -46.03,0 -87.4,0 -132.27,0 0,180.2 0,359.48 0,542.12 -54.22,0 -105.03,0 -157.56,0 0,37.59 0,71.79 0,107.73 150.1,0 298.63,0 449.35,0 0,-34.4 0,-68.62 0,-107.33 -52.28,0 -104.73,0 -159.52,0 0,-182.95 0,-361.46 0,-542.52"
         style="fill:#ffffff;fill-opacity:1;fill-rule:nonzero;stroke:none"
         transform="matrix(0.13333333,0,0,-0.13333333,0,534.66667)" />
      <path
         id="path24"
         d="m 4404.24,2644.07 c 78.55,0 152.81,0 229.52,0 0,-36.23 0,-70.42 0,-106.85 -118.94,0 -238.34,0 -359.78,0 0,214.73 0,429.97 0,647.79 42.4,0 85.09,0 130.26,0 0,-179.3 0,-357.96 0,-540.94"
         style="fill:#ffffff;fill-opacity:1;fill-rule:nonzero;stroke:none"
         transform="matrix(0.13333333,0,0,-0.13333333,0,534.66667)" />
      <path
         id="path25"
         d="m 7340.65,2367.06 c 43.03,0 85.15,0 130.64,0 0,-180.5 0,-359.92 0,-542.47 78.26,0 153.22,0 229.74,0 0,-36.63 0,-70.11 0,-106.03 -119.34,0 -238.73,0 -360.38,0 0,214.86 0,430.85 0,648.5"
         style="fill:#ffffff;fill-opacity:1;fill-rule:nonzero;stroke:none"
         transform="matrix(0.13333333,0,0,-0.13333333,0,534.66667)" />
    </g>
  </g>
</svg>

