<svg version="1.2" baseProfile="tiny-ps" xmlns="http://www.w3.org/2000/svg" viewBox="0 0 1581 588" width="1581" height="588">
	<title>materialise-logo-svg</title>
	<defs>
		<linearGradient id="grd1" gradientUnits="userSpaceOnUse"  x1="536.8" y1="378.3" x2="1592.1" y2="45.5">
			<stop offset="0" stop-color="#0061af"  />
			<stop offset=".1" stop-color="#0070b9"  />
			<stop offset=".4" stop-color="#008cce"  />
			<stop offset=".7" stop-color="#00a2df"  />
			<stop offset=".9" stop-color="#00b0ea"  />
			<stop offset="1" stop-color="#00b6ed"  />
		</linearGradient>
	</defs>
	<style>
		tspan { white-space:pre }
		.s0 { fill: #000000 } 
		.s1 { fill: url(#grd1) } 
		.s2 { fill: none } 
	</style>
	<g id="Layer">
		<path id="Layer" fill-rule="evenodd" class="s0" d="m783.63 432.66c0 1.67 0 3.9-2.79 12.82c-2.79 8.92-4.46 11.71-8.92 11.71c-1.67 0-5.02-0.56-10.04-1.67c-3.9-1.12-8.37-1.67-15.06-1.67c-13.94 0-21.19 6.13-21.19 22.3v91.44c0 16.17 0 16.17-16.73 16.17c-17.29 0-17.29 0-17.29-16.17v-97.57c0-30.67 17.85-50.18 51.87-50.18c10.04 0 21.19 1.67 29.56 3.9c6.69 2.23 11.15 3.9 10.6 8.92zm-278.87 127.68c3.35 8.36 3.35 10.04 3.35 11.15c0 2.79-2.79 5.02-8.37 7.25c-12.27 5.02-23.98 7.25-37.37 7.25c-35.7 0-51.31-23.97-51.31-55.75v-127.68c0-17.84-0.56-17.84 16.73-17.84c17.29 0 17.29 0 17.29 17.84v20.07h40.16c16.73 0 16.73 0.56 16.73 16.17c0 15.61 0 15.61-16.73 15.61h-39.6v75.83c0 15.05 6.69 23.97 21.75 23.97c7.81 0 14.5-1.67 20.64-3.9c3.35-1.12 6.14-1.67 8.37-1.67c3.9 0 5.02 3.35 8.37 11.71zm156.17-71.92v8.36c0 18.4-2.23 20.07-18.96 20.07h-85.89v3.9c0 22.86 16.73 35.13 39.6 35.13c12.83 0 23.43-2.23 32.91-6.13c4.46-2.23 7.81-3.9 10.6-3.9c3.35 0 5.58 2.79 9.48 11.71c3.35 6.13 3.9 8.36 3.9 10.59c0 2.23-1.67 4.46-8.92 7.81c-10.6 4.46-28.45 10.04-47.97 10.04c-43.5 0-69.72-26.76-72.51-64.68c-1.12-11.15-0.56-28.43 0-37.91c3.35-39.03 31.23-63.56 69.72-63.56c40.72 0 68.05 27.32 68.05 68.58zm-67.49-38.47c-25.66 0-37.93 16.17-37.37 41.82h69.16c3.9 0 3.9 0 3.9-3.9c1.12-23.42-13.39-38.47-35.7-37.91zm866.18 38.47v8.36c0 18.4-2.23 20.07-18.96 20.07h-85.89v3.9c0 22.86 16.73 35.13 39.6 35.13c12.83 0 23.43-2.23 32.91-6.13c4.46-2.23 7.81-3.9 10.6-3.9c3.35 0 5.58 2.79 9.48 11.71c3.35 6.13 3.9 8.36 3.9 10.59c0 2.23-1.67 4.46-8.92 7.81c-10.6 4.46-28.45 10.04-47.97 10.04c-43.5 0-69.72-26.76-72.51-64.68c-1.12-11.15-0.56-28.43 0-37.91c3.35-39.03 31.23-63.56 69.72-63.56c41.27 0 68.05 27.32 68.05 68.58zm-67.49-38.47c-25.66 0-37.93 16.17-37.37 41.82h69.16c3.9 0 3.9 0 3.9-3.9c1.12-23.42-12.83-38.47-35.7-37.91zm-1016.77 29.55v77.5c0 6.69-1.12 8.92-6.14 12.82c-8.37 6.13-30.12 16.73-63.03 16.73c-42.39 0-62.47-22.86-62.47-51.85c0-26.2 18.41-49.06 60.24-49.06c13.94 0 25.1 2.23 37.93 5.58v-11.71c0-18.96-8.92-28.43-31.79-28.43c-11.71 0-22.87 2.79-31.23 6.13c-3.9 1.67-7.81 2.79-10.04 2.79c-2.79 0-4.46-1.12-8.92-10.59c-2.79-6.69-3.9-10.04-3.9-12.27c0-3.35 2.23-5.58 10.04-8.36c12.27-5.02 28.45-8.92 44.62-8.92c42.39 0 65.26 18.4 64.7 59.66zm-32.35 68.58v-32.34c-12.27-3.35-22.31-5.58-34.02-5.58c-21.75 0-31.79 10.59-31.79 23.97c0 15.61 11.71 23.97 31.79 23.97c13.94 0 26.77-5.02 33.46-10.04h0.56zm-126.05-65.79v84.75c0 16.73 0 16.73-17.29 16.73c-16.73 0-16.73 0-16.73-16.73v-82.52c0-20.07-8.92-30.67-28.45-30.67c-12.27 0-22.87 5.58-29.56 11.15c0.56 5.58 1.12 11.71 1.12 18.4v83.63c0 16.73 0 16.73-17.29 16.73c-17.29 0-17.29 0-17.29-16.73v-82.52c0-20.63-9.48-30.11-29-30.11c-10.04 0-21.75 4.46-27.89 8.36v104.26c0 16.73 0 16.73-17.29 16.73c-17.29 0-17.29 0-17.29-16.73v-117.08c0-6.69 1.67-10.04 6.14-13.38c10.04-7.25 33.46-16.73 55.22-16.73c20.08 0 33.46 6.69 44.06 17.28c12.27-9.48 29.56-17.28 49.64-17.28c42.95 0 60.79 23.42 61.91 62.45zm623-41.82v127.12c0 16.17 0 16.17-17.29 16.17c-16.73 0-16.73 0-16.73-16.17v-127.12c0-17.28 0-17.28 16.73-17.28c17.29 0 17.29 0 17.29 17.28zm233.14-55.2v181.76c0 16.17 0 16.17-17.29 16.17c-17.29 0-17.29 0-17.29-16.17v-181.76c0-17.84 0-17.84 17.29-17.84c16.73 0 16.73 0 17.29 17.84zm-72.51 94.23v77.5c0 6.69-1.12 8.92-6.14 12.82c-8.37 6.13-30.12 16.73-63.03 16.73c-42.39 0-62.47-22.86-62.47-51.85c0-26.2 18.41-49.06 60.24-49.06c13.94 0 25.1 2.23 37.93 5.58v-11.71c0-18.96-8.92-28.43-31.79-28.43c-11.71 0-22.87 2.79-31.23 6.13c-3.9 1.67-7.81 2.79-10.04 2.79c-2.79 0-4.46-1.12-8.92-10.59c-2.79-6.69-3.9-10.04-3.9-12.27c0-3.35 2.23-5.58 10.04-8.36c12.27-5.02 28.45-8.92 44.62-8.92c42.39 0 65.26 18.4 64.7 59.66zm-32.35 68.58v-32.34c-12.27-3.35-22.31-5.58-34.02-5.58c-21.75 0-31.79 10.59-31.79 23.97c0 15.61 11.71 23.97 31.79 23.97c13.94 0 26.77-5.02 33.46-10.04h0.56zm179.59-165.59c0 18.96 0 18.96-18.96 18.96c-18.41 0-18.41 0-18.41-18.96c0-18.4 0-18.4 18.41-18.4c18.41 0 18.41 0 18.96 18.4zm-1.67 57.98v127.12c0 16.17 0 16.17-17.29 16.17c-16.73 0-16.73 0-16.73-16.17v-127.12c0-17.28 0-17.28 16.73-17.28c17.29 0 17.29 0 17.29 17.28zm-304.53-57.98c0 18.96 0 18.96-18.96 18.96c-18.41 0-18.41 0-18.41-18.96c0-18.4 0-18.4 18.41-18.4c18.96 0 18.96 0 18.96 18.4zm458.47 155c0 31.22-26.21 50.18-60.24 50.18c-26.21 0-43.5-7.25-57.45-17.84c-3.9-2.79-6.69-5.02-6.69-8.36c0-2.79 0.56-3.9 6.14-11.15c5.02-7.25 7.25-9.48 10.6-9.48c2.79 0 5.02 2.23 8.92 4.46c9.48 6.69 21.75 11.15 37.93 11.15c17.85 0 26.77-8.36 26.77-18.96c0-8.36-5.58-13.38-20.08-17.28c-9.48-2.23-13.39-3.35-23.43-5.58c-24.54-6.13-42.39-20.07-42.39-45.16c0-30.67 26.21-49.06 60.79-49.06c17.29 0 35.7 5.58 45.74 13.38c3.9 3.35 5.58 5.58 5.58 8.36c0 2.79-1.12 5.02-6.69 11.71c-5.02 6.13-6.69 8.36-10.04 8.36c-3.35 0-5.58-1.67-10.6-4.46c-7.81-4.46-16.73-6.69-26.21-6.69c-16.73 0-25.66 6.13-25.66 17.28c0 7.81 5.02 12.82 20.08 16.73c7.81 2.23 17.29 3.9 21.19 5.02c30.12 7.25 44.62 21.74 45.74 47.39z" />
		<path id="Layer" class="s1" d="m1580.65 0v215.77h-684.91l684.91-215.77zm-1058.05 333.41v-117.64h373.69l-373.69 117.64h0z" />
	</g>
	<g id="Layer">
		<path id="Layer" class="s2" d="m1518.19 1.12h-84.22c-16.73 0-16.73 0-16.73-17.28c0-16.73 0-16.73 16.73-16.73h82.55c20.08 0 30.68-8.92 30.68-28.43c0-12.27-5.58-22.86-11.15-29.55c-5.58 0.56-11.71 1.12-18.41 1.12h-83.66c-16.73 0-16.73 0-16.73-17.28c0-17.28 0-17.28 16.73-17.28h82.55c20.64 0 30.12-9.48 30.12-28.99c0-10.04-4.46-21.74-8.37-27.88h-104.3c-16.73 0-16.73 0-16.73-17.28c0-17.28 0-17.28 16.73-17.28h117.13c6.69 0 10.04 1.67 13.39 6.13c7.25 10.04 16.73 33.45 16.73 55.2c0 20.07-6.69 33.45-17.29 44.05c9.48 12.27 17.29 29.55 17.29 49.62c0 42.93-23.43 60.77-63.03 61.89z" />
	</g>
</svg>