<?xml version="1.0" encoding="utf-8" standalone="no"?>
<svg version="1.1" width="32.5pt" height="28.34pt" viewBox="0 0 32.504 28.344" xmlns="http://www.w3.org/2000/svg">
  <g id="Layer_03">
    <path d="M20.938786,10.76372 C22.75723,9.64309 24.575678,8.522461 26.394123,7.401831 C26.394123,14.335783 26.394123,21.269732 26.394123,28.203682 C27.987421,28.203682 29.58072,28.203682 31.174019,28.203682 C31.551363,28.208372 31.891514,28.189804 32.077538,28.0386 C32.26356,27.887396 32.295456,27.603554 32.28749,27.276657 C32.28749,18.54544 32.28749,9.814223 32.28749,1.0830066 C32.295456,0.75610787 32.26356,0.47226742 32.077538,0.3210627 C31.891514,0.16985802 31.551363,0.1512891 31.174019,0.15597987 C30.038692,0.15597987 28.903366,0.15597987 27.768038,0.15597987 C25.506052,1.6417341 23.244066,3.1274884 20.982079,4.613242 C20.743107,4.775127 20.378584,4.9965763 20.18351,5.176053 C19.988436,5.3555303 19.962809,5.4930353 19.96941,5.981108 C19.96941,7.436483 19.96941,8.891858 19.96941,10.347233 C19.934608,10.990745 20.353231,11.133432 20.938786,10.76372 z" stroke="#DCF6F8" stroke-width="0" fill="#DCF6F8" fill-opacity="1" />
    <path d="M16.003792,6.9942713 C14.118882,6.9942713 12.233973,6.9942713 10.349064,6.9942713 C10.349064,4.70962 10.349064,2.4249685 10.349064,0.14031683 C8.44537,0.14031683 6.5416756,0.14031683 4.637982,0.14031683 C4.637982,2.4249685 4.637982,4.70962 4.637982,6.9942713 C3.3422816,6.9942737 2.7081351,6.9942684 2.2344618,6.994268 C0.43714535,6.994265 0.9502634,6.994316 1.0833365,6.9973197 C1.2164097,7.0003242 0.9694377,7.0062804 0.8318605,7.017491 C0.69428325,7.0287013 0.66610056,7.045166 0.6185383,7.0684147 C0.5709761,7.091663 0.5040342,7.1216955 0.4532405,7.159354 C0.40244678,7.197014 0.36780113,7.2423005 0.33941826,7.294593 C0.31103536,7.346885 0.2889153,7.406183 0.27406645,7.472357 C0.24436876,7.6047053 0.24375597,7.76456 0.24344166,7.917802 C0.24293868,8.163012 0.2431999,8.391291 0.243287,8.622928 C0.24337408,8.854566 0.24328701,9.089561 0.243287,9.324557 C0.24328697,9.559553 0.24337402,9.79455 0.243287,10.026188 C0.24319997,10.257825 0.2429389,10.486103 0.24344154,10.731313 C0.24375562,10.884555 0.244368,11.044409 0.27406695,11.176758 C0.28891644,11.242932 0.31103757,11.302231 0.33941826,11.354523 C0.36779892,11.406815 0.40243915,11.452102 0.4532405,11.48976 C0.5040419,11.52742 0.5710044,11.557452 0.6185383,11.5807 C0.66607225,11.603949 0.69417757,11.620414 0.8318605,11.631624 C0.96954334,11.642835 1.2168039,11.648791 1.0833365,11.651795 C0.94986916,11.6547985 0.4356741,11.654851 2.235816,11.654847 C2.710452,11.654846 3.3459804,11.654841 4.643946,11.654843 C4.64374,13.119671 4.644399,14.592986 4.643699,16.052961 C4.6433487,16.782951 4.642659,17.509604 4.6447916,18.263962 C4.6458583,18.64114 4.6476297,19.025246 4.643946,19.355797 C4.640262,19.686346 4.6311226,19.96334 4.643946,20.455933 C4.6567698,20.948523 4.691556,21.656712 4.775,22.257633 C4.858444,22.858555 4.9905457,23.35221 5.1622906,23.82474 C5.334036,24.29727 5.545424,24.748676 5.797009,25.155516 C6.0485935,25.562355 6.340374,25.92463 6.6703453,26.248228 C7.0003176,26.571823 7.3684797,26.856747 7.773493,27.101135 C8.178507,27.345524 8.620373,27.549377 9.097642,27.712503 C9.574912,27.875631 10.087588,27.998024 10.633919,28.080994 C10.907084,28.122478 11.188664,28.154104 11.478975,28.172876 C11.769288,28.191647 12.068332,28.197565 12.289389,28.201008 C12.7315035,28.2079 12.8616705,28.204893 13.04838,28.203682 C13.23509,28.202473 13.478342,28.203056 13.714283,28.203403 C14.186164,28.204107 14.628794,28.203878 15.0749445,28.203764 C15.967247,28.203533 16.873632,28.20375 17.771057,28.203682 C17.771326,27.58832 17.770515,26.96807 17.771057,26.353928 C17.771597,25.739786 17.773487,25.131752 17.768381,24.49207 C17.76717,24.340435 17.765566,24.187023 17.740322,24.055689 C17.715078,23.924355 17.666195,23.815102 17.568853,23.740498 C17.374168,23.591291 16.985657,23.580685 16.659355,23.576988 C16.346584,23.573444 16.090971,23.576252 15.816987,23.577145 C15.543006,23.578037 15.250655,23.577013 14.976391,23.577145 C14.7021265,23.577276 14.44595,23.578566 14.117108,23.576277 C13.952688,23.575132 13.7701025,23.573093 13.715496,23.577145 C13.660888,23.581196 13.73426,23.59134 12.802242,23.553745 C12.780791,23.55288 12.758808,23.55199 12.62197,23.521566 C12.485131,23.49114 12.2334385,23.431183 12.030188,23.356537 C11.826937,23.28189 11.672128,23.192558 11.522415,23.084623 C11.372702,22.976686 11.228085,22.850147 11.101215,22.708387 C10.974348,22.566626 10.865229,22.409643 10.769154,22.230392 C10.6730795,22.051142 10.590049,21.849623 10.526615,21.645287 C10.399749,21.236616 10.35127,20.816677 10.333427,20.211496 C10.315586,19.606318 10.328382,18.815895 10.333427,18.072334 C10.338473,17.328772 10.335769,16.632069 10.334396,15.927314 C10.331652,14.517799 10.334234,13.076072 10.333427,11.654843 C11.866639,11.654843 14.846625,11.654843 15.888975,11.654843 C16.7722,11.654843 16.264236,11.654843 16.073084,11.654794 C15.881928,11.654745 16.007586,11.654646 16.092562,11.654453 C16.262516,11.654067 16.269754,11.653303 16.293005,11.6518 C16.339508,11.648794 16.450068,11.642832 16.531984,11.631629 C16.57294,11.626028 16.606737,11.619117 16.640886,11.610695 C16.675037,11.602273 16.70954,11.592339 16.741695,11.580706 C16.806004,11.557441 16.860916,11.52738 16.90731,11.48976 C16.953705,11.452142 16.99158,11.406964 17.021133,11.354523 C17.050688,11.30208 17.071922,11.242374 17.08653,11.176299 C17.10114,11.110226 17.109121,11.037783 17.11314,10.962615 C17.117157,10.887447 17.117208,10.809554 17.117237,10.733106 C17.117325,10.488448 17.117163,10.258593 17.117264,10.026188 C17.117365,9.793782 17.117727,9.558826 17.117264,9.324557 C17.1168,9.090288 17.115509,8.856706 17.117264,8.622928 C17.119019,8.389151 17.123816,8.15518 17.118708,7.917233 C17.112324,7.6198263 17.090466,7.31621 16.90731,7.159354 C16.724155,7.0024996 16.379704,6.992406 16.003792,6.9942713 z" stroke="#DCF6F8" stroke-width="0" fill="#DCF6F8" fill-opacity="1" />
  </g>
</svg>