<?xml version="1.0" encoding="utf-8" standalone="no"?>
<!DOCTYPE svg PUBLIC "-//W3C//DTD SVG 1.1//EN" "http://www.w3.org/Graphics/SVG/1.1/DTD/svg11.dtd">
<svg version="1.1" width="612pt" height="439.2pt" viewBox="0 0 612 439.2" xmlns="http://www.w3.org/2000/svg">
  <defs />
  <g id="Default">
    <path d="M277.2294,362.27917 C215.49327,362.35583 211.7186,362.20352 207.9971,361.6731 C205.1341,361.26498 202.30255,360.6331 199.57336,359.6548 C197.50589,358.9137 195.49715,357.97382 193.7063,356.71844 C192.1555,355.63135 190.76811,354.30765 189.5566,352.8456 C188.05765,351.03674 186.82797,349.01608 185.79121,346.90726 C184.52647,344.3347 183.54884,341.6309 182.78238,338.8709 C181.83052,335.4434 181.20432,331.9292 180.7827,328.39508 C180.27132,324.10858 180.06091,319.7927 180.06091,315.47717 C180.06091,276.88437 180.06091,238.29155 180.06091,199.69875 C197.72864,199.69875 215.39635,199.69875 233.06409,199.69875 C237.77249,199.69875 242.50621,199.10396 246.97527,197.6331 C251.71735,196.07236 256.1614,193.5252 259.7958,190.10197 C263.38724,186.71921 266.18802,182.48094 267.95715,177.87917 C269.64404,173.49144 270.39307,168.77322 270.39392,164.0547 C270.3948,159.31604 269.64108,154.57709 267.91205,150.18257 C266.99817,147.85995 265.81186,145.63353 264.38834,143.57526 C262.9544,141.50192 261.27975,139.5992 259.40176,137.92868 C255.75653,134.68605 251.34521,132.31831 246.67924,130.87389 C242.28505,129.51361 237.665,128.97221 233.06409,128.97221 C215.39635,128.97221 197.72864,128.97221 180.06091,128.97221 C180.06091,113.361694 180.06091,97.751175 180.06091,82.14066 C180.06091,76.837616 179.3636,71.50314 177.62752,66.49678 C175.81967,61.283398 172.88538,56.425835 168.9902,52.51981 C165.16733,48.68627 160.4189,45.76928 155.32106,43.94497 C150.4056,42.185925 145.16525,41.44277 139.92796,41.444054 C134.6991,41.445335 129.47328,42.188667 124.55492,43.915142 C119.4906,45.69285 114.752266,48.512917 110.880905,52.23243 C106.837,56.11773 103.73907,60.984444 101.824,66.251564 C99.983284,71.31418 99.23536,76.74672 99.23536,82.14066 C99.23536,97.751175 99.23536,113.361694 99.23536,128.97221 C92.601746,128.97221 85.96814,128.97221 79.33453,128.97221 C74.73363,128.97221 70.11383,129.51593 65.71951,130.87518 C61.053413,132.31851 56.64154,134.68135 52.996655,137.92714 C49.254734,141.25934 46.321175,145.52213 44.48641,150.18109 C42.757,154.57254 42.003807,159.31598 42.004803,164.05577 C42.00579,168.7754 42.75455,173.4914 44.44138,177.87857 C46.21048,182.47977 49.011383,186.71927 52.602844,190.10233 C56.23726,193.52583 60.681255,196.0723 65.42332,197.63287 C69.892365,199.10362 74.62613,199.69875 79.33453,199.69875 C85.96814,199.69875 92.601746,199.69875 99.23536,199.69875 C99.23536,239.7877 99.23536,279.87665 99.23536,319.9656 C99.23536,331.01953 100.10376,342.08606 102.23918,352.93427 C104.19772,362.8839 107.22208,372.64984 111.6362,381.77573 C115.894325,390.57907 121.44573,398.78687 128.2046,405.84592 C134.95366,412.89468 142.90665,418.7981 151.52667,423.3868 C160.54578,428.18796 170.2951,431.54987 180.28073,433.71072 C191.15189,436.06323 202.30312,436.99225 213.4271,436.99225 C240.5912,436.99225 267.7553,436.99225 294.9194,436.99225 C294.9194,412.0879 294.9194,387.1835 294.9194,362.27917 C289.02277,362.27917 283.1261,362.27917 277.2294,362.27917 z M272.80695,384.39685 C272.80695,394.55783 272.80695,404.7188 272.80695,414.87976 C253.01364,414.87976 233.22037,414.87976 213.4271,414.87976 C206.19609,414.87976 198.95786,414.44278 191.80928,413.3537 C185.39938,412.37717 179.06157,410.8763 172.95189,408.70486 C170.09808,407.69058 167.29405,406.53 164.56784,405.21118 C161.9828,403.9606 159.46774,402.56778 157.0424,401.03003 C152.36037,398.0615 148.0127,394.55304 144.17935,390.55106 C140.32727,386.52945 136.99457,382.00958 134.20953,377.18466 C131.2384,372.03738 128.8906,366.54297 127.066154,360.88687 C125.052055,354.6428 123.67579,348.20166 122.77163,341.70233 C121.77013,334.50333 121.34783,327.23297 121.34783,319.9656 C121.34783,272.50586 121.34783,225.04605 121.34783,177.58627 C107.3434,177.58627 93.33897,177.58627 79.33453,177.58627 C78.02681,177.58627 76.719955,177.50598 75.42403,177.32256 C74.37728,177.17441 73.33766,176.95894 72.3359,176.62778 C71.4398,176.33156 70.574,175.94275 69.75606,175.46689 C69.04207,175.05153 68.36455,174.56982 67.765854,174.00504 C67.19108,173.46281 66.68894,172.84401 66.24982,172.18343 C65.781784,171.47939 65.38531,170.72792 65.081375,169.94186 C64.75705,169.10309 64.53811,168.22495 64.38657,167.33649 C64.20148,166.25116 64.11698,165.15048 64.11698,164.0508 C64.116974,162.95778 64.20043,161.86577 64.386,160.78679 C64.53286,159.93283 64.74368,159.08702 65.06214,158.28395 C65.35897,157.53542 65.74932,156.82399 66.20907,156.15944 C66.64255,155.53288 67.13772,154.94798 67.70362,154.44246 C68.28775,153.92067 68.94724,153.48346 69.63714,153.10625 C70.47086,152.6504 71.34898,152.28217 72.25395,152.00076 C73.277435,151.68248 74.33526,151.47527 75.39958,151.33357 C76.70446,151.15988 78.01913,151.08469 79.33453,151.08469 C93.33897,151.08469 107.3434,151.08469 121.34783,151.08469 C121.34783,128.10333 121.34783,105.12201 121.34783,82.14066 C121.34783,80.58934 121.45253,79.03866 121.69118,77.50454 C121.88674,76.24739 122.172264,75.001366 122.6069,73.80819 C123.00325,72.72011 123.52362,71.675995 124.15188,70.70014 C124.740204,69.78632 125.42316,68.932365 126.203514,68.18032 C126.963356,67.44801 127.81556,66.81233 128.7222,66.26615 C129.72096,65.66447 130.78578,65.17141 131.88333,64.7847 C134.45453,63.878754 137.20534,63.556458 139.93655,63.559864 C141.3991,63.561687 142.85603,63.656918 144.29932,63.88152 C145.51253,64.07033 146.71608,64.35055 147.87067,64.76553 C148.93382,65.147675 149.95546,65.64408 150.91656,66.242516 C151.7876,66.78484 152.60892,67.41096 153.33136,68.135284 C154.0677,68.873566 154.70132,69.71386 155.24791,70.60556 C155.85454,71.59522 156.35397,72.64819 156.73463,73.74184 C157.1561,74.9527 157.43195,76.213425 157.62027,77.48412 C157.84882,79.026215 157.94843,80.58301 157.94843,82.14066 C157.94843,105.12201 157.94843,128.10333 157.94843,151.08469 C182.98698,151.08469 208.02554,151.08469 233.06409,151.08469 C234.5286,151.08469 235.99493,151.17206 237.44261,151.39471 C238.59828,151.57248 239.74202,151.83646 240.8408,152.23535 C241.8006,152.58379 242.72606,153.03516 243.57811,153.59898 C244.12155,153.9586 244.63515,154.36395 245.09673,154.82199 C245.71921,155.43965 246.24712,156.1531 246.682,156.9171 C246.90689,157.31216 247.10692,157.72076 247.27875,158.14085 C247.6261,158.98993 247.8583,159.88593 248.01474,160.791 C248.22595,162.01285 248.29907,163.25125 248.27417,164.4917 C248.25009,165.69043 248.13446,166.89104 247.8743,168.05885 C247.66339,169.00555 247.3575,169.9307 246.93864,170.80736 C246.53394,171.65451 246.02373,172.4564 245.41605,173.17044 C244.84674,173.83937 244.19188,174.43118 243.47484,174.93845 C242.63399,175.53331 241.70764,176.0119 240.74483,176.3815 C239.66876,176.79457 238.54715,177.07147 237.4109,177.25827 C235.97635,177.49408 234.51845,177.58627 233.06409,177.58627 C208.02554,177.58627 182.98698,177.58627 157.94843,177.58627 C157.94843,223.54991 157.94843,269.51352 157.94843,315.47717 C157.94843,319.01184 158.07323,322.54782 158.34329,326.07172 C158.59909,329.4092 158.98517,332.73584 159.5436,336.03723 C160.56409,342.07068 162.1601,348.0199 164.56152,353.64685 C165.65761,356.21515 166.92148,358.7163 168.37358,361.10205 C169.85725,363.5397 171.53743,365.85684 173.42105,367.99908 C175.16844,369.98642 177.09093,371.82318 179.17184,373.45868 C181.5243,375.30756 184.07925,376.8992 186.76266,378.2218 C189.28285,379.46393 191.91632,380.46878 194.60248,381.29648 C197.47015,382.18015 200.39784,382.86188 203.36014,383.3394 C204.9604,383.59735 206.57076,383.7957 208.18529,383.9317 C210.79437,384.1515 213.41435,384.2085 216.03383,384.251 C221.03503,384.33218 226.03441,384.36053 231.03413,384.3795 C244.95708,384.43228 258.8826,384.41238 272.80695,384.39685 z" stroke="Black" stroke-width="0" fill="#000000" fill-opacity="1" />
    <path d="M323.1945,437.02573 C392.45807,437.02573 461.72162,437.02573 530.98517,437.02573 C535.8531,437.02573 540.7338,436.40515 545.368,434.91272 C550.20496,433.355 554.7733,430.84753 558.5298,427.4369 C562.5237,423.8108 565.5998,419.16382 567.4932,414.1138 C569.2773,409.35556 570.01135,404.2395 569.9949,399.1342 C569.9787,394.07758 569.2261,389.03146 567.3787,384.34534 C566.4023,381.86823 565.1199,379.49167 563.57764,377.31152 C562.01776,375.10635 560.1921,373.10208 558.1477,371.35428 C554.37427,368.12823 549.85583,365.77597 545.0963,364.325 C540.5352,362.93454 535.7527,362.37183 530.98517,362.37183 C514.4396,362.37183 497.894,362.37183 481.3484,362.37183 C481.3484,254.74799 481.3484,147.12418 481.3484,39.500355 C481.3484,35.77719 480.9819,32.04532 480.08734,28.431421 C479.62378,26.55866 479.01837,24.71758 478.26227,22.94255 C477.47702,21.099148 476.52924,19.326982 475.42993,17.651388 C474.30902,15.942863 473.0306,14.334745 471.60535,12.872156 C470.33148,11.564862 468.9403,10.373835 467.46848,9.291852 C464.68985,7.2492085 461.6238,5.595207 458.3842,4.4206758 C455.19818,3.2655814 451.8443,2.5742188 448.4646,2.3061903 C446.49466,2.14996 444.5159,2.1375606 442.54263,2.2422767 C439.94562,2.3800933 437.35806,2.7207682 434.81152,3.2520692 C432.2614,3.784112 429.7524,4.5073133 427.30524,5.39547 C425.07907,6.203427 422.9041,7.147894 420.7593,8.160949 C418.63208,9.165722 416.53452,10.237965 414.35797,11.452286 C413.26968,12.059446 412.16168,12.702126 410.99484,13.419442 C409.828,14.136759 408.60236,14.928713 407.37128,15.726326 C401.15018,19.757011 394.79108,23.932228 388.40894,28.123045 C382.0268,32.313858 375.62164,36.52027 369.19354,40.74765 C356.33737,49.2024 343.38943,57.74099 330.48596,66.247986 C328.49393,67.50172 326.58713,68.89476 324.81046,70.43808 C322.98126,72.02708 321.29,73.775375 319.7815,75.67243 C318.18176,77.68415 316.78748,79.86315 315.6523,82.16751 C314.5949,84.31407 313.7624,86.569405 313.12903,88.87885 C312.55414,90.974976 312.14334,93.11568 311.91882,95.27655 C311.6906,97.472626 311.6548,99.689514 311.82092,101.89138 C311.98795,104.10505 312.3591,106.30351 312.92224,108.45128 C313.36716,110.14818 313.93192,111.81343 314.59836,113.43536 C315.3396,115.2393 316.2066,116.989655 317.18893,118.67531 C319.06363,121.89207 321.35846,124.873215 324.05524,127.43874 C325.72266,129.02502 327.54376,130.45242 329.49417,131.67406 C331.44495,132.89594 333.52505,133.91197 335.68542,134.70831 C337.80225,135.4886 339.99615,136.05794 342.2216,136.42618 C344.48886,136.80133 346.78888,136.96776 349.08682,136.91963 C351.42438,136.87067 353.75977,136.59969 356.04944,136.12938 C360.51135,135.21289 364.7996,133.53946 368.81076,131.37958 C379.19443,124.53406 389.5781,117.688545 399.96176,110.84302 C399.96176,194.68596 399.96176,278.52887 399.96176,362.37183 C368.476,362.37183 336.99026,362.37183 305.50452,362.37183 C305.50452,387.25647 305.50452,412.14108 305.50452,437.02573 C311.40118,437.02573 317.29785,437.02573 323.1945,437.02573 z M327.617,414.91327 C327.617,404.7703 327.617,394.62726 327.617,384.48428 C359.10275,384.48428 390.5885,384.48428 422.07425,384.48428 C422.07425,279.5828 422.07425,174.68129 422.07425,69.77979 C400.57245,83.95505 379.07065,98.1303 357.56885,112.30555 C355.6739,113.26092 353.6814,114.036606 351.601,114.466515 C350.6206,114.66912 349.6207,114.79493 348.62253,114.813965 C347.6898,114.83176 346.75858,114.75631 345.83432,114.6063 C344.98206,114.46799 344.13574,114.2663 343.32834,113.96693 C341.82742,113.41041 340.46103,112.51637 339.29614,111.41779 C338.10364,110.29321 337.12225,108.9543 336.29623,107.53757 C335.82556,106.730354 335.40536,105.89787 335.05008,105.0342 C334.4204,103.503525 333.99466,101.87486 333.86945,100.22686 C333.72934,98.38268 333.96558,96.51428 334.4537,94.724846 C334.71527,93.766045 335.04916,92.82992 335.48883,91.94108 C335.92828,91.05267 336.47342,90.21151 337.09067,89.43396 C338.51575,87.6388 340.32538,86.18278 342.26437,84.96244 C342.3304,84.92088 342.39642,84.879326 342.46246,84.83777 C342.52762,84.79482 342.59274,84.75188 342.65787,84.70892 C368.46695,67.69218 394.3931,50.600536 419.50162,34.196167 C422.14728,32.46765 424.87006,30.857607 427.67307,29.398552 C429.3026,28.55033 430.9593,27.753136 432.65582,27.045082 C434.81622,26.143423 437.0413,25.38632 439.3266,24.89814 C441.2823,24.480377 443.28204,24.25955 445.2886,24.287498 C447.17905,24.31383 449.07553,24.560982 450.84412,25.208109 C451.77655,25.549295 452.67346,26.001665 453.51917,26.528618 C454.09845,26.889574 454.6537,27.285526 455.16428,27.734629 C455.8436,28.332172 456.44376,29.023811 456.9435,29.77988 C457.52164,30.654524 457.96536,31.615389 458.2954,32.61091 C458.55087,33.381474 458.73825,34.172802 458.87827,34.971912 C459.13974,36.464558 459.2359,37.984352 459.2359,39.500355 C459.2359,154.495 459.2359,269.48965 459.2359,384.48428 C483.15234,384.48428 507.0688,384.48428 530.98517,384.48428 C532.5511,384.48428 534.1186,384.57904 535.66675,384.8154 C536.94495,385.01053 538.20984,385.3022 539.42737,385.73608 C540.49817,386.1177 541.5323,386.6093 542.491,387.222 C543.1188,387.62308 543.7142,388.07602 544.2502,388.59103 C544.9632,389.2762 545.5711,390.07123 546.06793,390.9288 C546.3239,391.3707 546.5504,391.82916 546.74384,392.3009 C547.1403,393.268 547.39764,394.29092 547.57196,395.32297 C547.81885,396.78513 547.8992,398.2655 547.8757,399.749 C547.8525,401.20932 547.7289,402.67267 547.4275,404.09842 C547.18884,405.227 546.83887,406.332 546.34595,407.3772 C545.87946,408.36615 545.28503,409.30154 544.5686,410.12534 C543.9352,410.85376 543.20636,411.49487 542.40967,412.03946 C541.46936,412.68222 540.4345,413.19046 539.3651,413.58987 C538.15314,414.0425 536.8967,414.35532 535.6223,414.56363 C534.0924,414.81375 532.53656,414.91327 530.98517,414.91327 C463.1958,414.91327 395.40637,414.91327 327.617,414.91327 z" stroke="Black" stroke-width="0" fill="#000000" fill-opacity="1" />
  </g>
</svg>