<?xml version="1.0" encoding="utf-8" standalone="no"?>
<!DOCTYPE svg PUBLIC "-//W3C//DTD SVG 1.1//EN" "http://www.w3.org/Graphics/SVG/1.1/DTD/svg11.dtd">
<svg version="1.1" width="612pt" height="439.2pt" viewBox="0 0 612 439.2" xmlns="http://www.w3.org/2000/svg">
  <g id="Default">
    <path d="M274.6798,394.17264 C268.6893,394.17264 260.43527,394.17264 249.91779,394.17264 C235.93971,394.17264 223.28214,394.17264 211.94505,394.17264 C189.95818,394.60126 174.07877,388.80988 164.30682,376.79852 C154.53488,364.7872 149.64891,347.1773 149.64891,323.96896 C149.64891,275.5393 149.64891,227.10963 149.64891,178.68 C175.30025,178.68 200.9516,178.68 226.60297,178.68 C233.52475,178.68 238.81789,176.94954 242.48236,173.48863 C246.14684,170.02774 247.9791,165.24356 247.9791,159.1361 C247.9791,153.02864 246.14684,148.34625 242.48236,145.08893 C238.81789,141.83162 233.52475,140.20296 226.60297,140.20296 C200.9516,140.20296 175.30025,140.20296 149.64891,140.20296 C149.64891,116.79101 149.64891,93.37907 149.64891,69.96711 C149.64891,61.823826 147.51129,55.614574 143.23607,51.339348 C138.96083,47.06412 132.95517,44.92651 125.21905,44.92651 C117.482925,44.92651 111.37546,47.06412 106.89665,51.339348 C102.41785,55.614574 100.17844,61.823826 100.17844,69.96711 C100.17844,93.37907 100.17844,116.79101 100.17844,140.20296 C86.53844,140.20296 72.89843,140.20296 59.258427,140.20296 C52.33663,140.20296 47.0435,141.83162 43.379017,145.08893 C39.71454,148.34625 37.8823,153.02864 37.8823,159.1361 C37.8823,165.24356 39.71454,170.02774 43.379017,173.48863 C47.0435,176.94954 52.33663,178.68 59.258427,178.68 C72.89843,178.68 86.53844,178.68 100.17844,178.68 C100.17844,228.7383 100.17844,278.79663 100.17844,328.85492 C100.17844,352.0633 104.0465,371.70895 111.78262,387.79196 C119.518745,403.87497 131.22472,416.0899 146.90056,424.43674 C162.57637,432.8051 182.01846,436.98926 205.22684,436.98926 C221.04272,436.98926 239.06247,436.98926 259.28607,436.98926 C263.55804,436.98926 268.6893,436.98926 274.6798,436.98926 C274.6798,422.71704 274.6798,408.44485 274.6798,394.17264 z" stroke="Black" stroke-width="0" fill="#000000" fill-opacity="1" />
    <path d="M324.71573,437.02573 C415.1586,437.02573 490.5565,437.02573 550.90936,437.02573 C558.2383,437.02573 563.9386,435.1935 568.0102,431.52902 C572.0819,427.86453 574.1177,422.36783 574.1177,415.03888 C574.1177,408.11707 572.0819,402.92572 568.0102,399.4648 C563.9386,396.00394 558.2383,394.27347 550.90936,394.27347 C526.4795,394.27347 502.0496,394.27347 477.61975,394.27347 C477.61975,270.6991 477.61975,147.12474 477.61975,23.550385 C477.61975,16.221428 475.6857,10.826499 471.8177,7.3656025 C467.94962,3.9047058 463.16544,2.1742575 457.46515,2.1742575 C452.57916,2.1742575 447.6932,3.1921682 442.80722,5.2279897 C437.92126,7.263811 432.83167,9.910379 427.53854,13.167694 C399.4442,31.69367 371.34988,50.219646 343.25555,68.74562 C337.9624,72.00294 334.5015,75.972786 332.87286,80.655174 C331.24417,85.33757 331.0406,89.816376 332.2621,94.0916 C333.4836,98.36683 335.6212,102.0313 338.67493,105.08504 C341.72867,108.13877 345.5967,109.869225 350.2791,110.27638 C354.9615,110.68355 359.94925,109.46205 365.2424,106.61191 C386.00778,92.86379 406.77316,79.11568 427.53854,65.36756 C427.53854,175.00287 427.53854,284.63818 427.53854,394.27347 C408.3093,394.27347 374.03503,394.27347 324.71573,394.27347 C324.71573,408.52423 324.71573,422.775 324.71573,437.02573 z" stroke="Black" stroke-width="0" fill="#000000" fill-opacity="1" />
  </g>
</svg>