<?xml version="1.0" encoding="utf-8" standalone="no"?>
<!DOCTYPE svg PUBLIC "-//W3C//DTD SVG 1.1//EN" "http://www.w3.org/Graphics/SVG/1.1/DTD/svg11.dtd">
<svg version="1.1" width="42.5pt" height="28.34pt" viewBox="0 0 42.504 28.344" xmlns="http://www.w3.org/2000/svg">
  <defs></defs>
  <g id="Layer_03">
    <path d="M20.938786,10.76372 C22.75723,9.64309 24.575678,8.522461 26.394123,7.401831 C26.394123,14.335783 26.394123,21.269732 26.394123,28.203682 C27.987421,28.203682 29.58072,28.203682 31.174019,28.203682 C31.551363,28.208372 31.891514,28.189804 32.077538,28.0386 C32.26356,27.887396 32.295456,27.603554 32.28749,27.276657 C32.28749,18.54544 32.28749,9.814223 32.28749,1.0830066 C32.295456,0.75610787 32.26356,0.47226742 32.077538,0.3210627 C31.891514,0.16985802 31.551363,0.1512891 31.174019,0.15597987 C30.038692,0.15597987 28.903366,0.15597987 27.768038,0.15597987 C25.506052,1.6417341 23.244066,3.1274884 20.982079,4.613242 C20.743107,4.775127 20.378584,4.9965763 20.18351,5.176053 C19.988436,5.3555303 19.962809,5.4930353 19.96941,5.981108 C19.96941,7.436483 19.96941,8.891858 19.96941,10.347233 C19.934608,10.990745 20.353231,11.133432 20.938786,10.76372 z" stroke="Black" stroke-width="0" fill="#000000" fill-opacity="1" />
    <path d="M16.003792,6.9942713 C14.118882,6.9942713 12.233973,6.9942713 10.349064,6.9942713 C10.349064,4.70962 10.349064,2.4249685 10.349064,0.14031683 C8.44537,0.14031683 6.5416756,0.14031683 4.637982,0.14031683 C4.637982,2.4249685 4.637982,4.70962 4.637982,6.9942713 C3.3422816,6.9942737 2.7081351,6.9942684 2.2344618,6.994268 C0.43714535,6.994265 0.9502634,6.994316 1.0833365,6.9973197 C1.2164097,7.0003242 0.9694377,7.0062804 0.8318605,7.017491 C0.69428325,7.0287013 0.66610056,7.045166 0.6185383,7.0684147 C0.5709761,7.091663 0.5040342,7.1216955 0.4532405,7.159354 C0.40244678,7.197014 0.36780113,7.2423005 0.33941826,7.294593 C0.31103536,7.346885 0.2889153,7.406183 0.27406645,7.472357 C0.24436876,7.6047053 0.24375597,7.76456 0.24344166,7.917802 C0.24293868,8.163012 0.2431999,8.391291 0.243287,8.622928 C0.24337408,8.854566 0.24328701,9.089561 0.243287,9.324557 C0.24328697,9.559553 0.24337402,9.79455 0.243287,10.026188 C0.24319997,10.257825 0.2429389,10.486103 0.24344154,10.731313 C0.24375562,10.884555 0.244368,11.044409 0.27406695,11.176758 C0.28891644,11.242932 0.31103757,11.302231 0.33941826,11.354523 C0.36779892,11.406815 0.40243915,11.452102 0.4532405,11.48976 C0.5040419,11.52742 0.5710044,11.557452 0.6185383,11.5807 C0.66607225,11.603949 0.69417757,11.620414 0.8318605,11.631624 C0.96954334,11.642835 1.2168039,11.648791 1.0833365,11.651795 C0.94986916,11.6547985 0.4356741,11.654851 2.235816,11.654847 C2.710452,11.654846 3.3459804,11.654841 4.643946,11.654843 C4.64374,13.119671 4.644399,14.592986 4.643699,16.052961 C4.6433487,16.782951 4.642659,17.509604 4.6447916,18.263962 C4.6458583,18.64114 4.6476297,19.025246 4.643946,19.355797 C4.640262,19.686346 4.6311226,19.96334 4.643946,20.455933 C4.6567698,20.948523 4.691556,21.656712 4.775,22.257633 C4.858444,22.858555 4.9905457,23.35221 5.1622906,23.82474 C5.334036,24.29727 5.545424,24.748676 5.797009,25.155516 C6.0485935,25.562355 6.340374,25.92463 6.6703453,26.248228 C7.0003176,26.571823 7.3684797,26.856747 7.773493,27.101135 C8.178507,27.345524 8.620373,27.549377 9.097642,27.712503 C9.574912,27.875631 10.087588,27.998024 10.633919,28.080994 C10.907084,28.122478 11.188664,28.154104 11.478975,28.172876 C11.769288,28.191647 12.068332,28.197565 12.289389,28.201008 C12.7315035,28.2079 12.8616705,28.204893 13.04838,28.203682 C13.23509,28.202473 13.478342,28.203056 13.714283,28.203403 C14.186164,28.204107 14.628794,28.203878 15.0749445,28.203764 C15.967247,28.203533 16.873632,28.20375 17.771057,28.203682 C17.771326,27.58832 17.770515,26.96807 17.771057,26.353928 C17.771597,25.739786 17.773487,25.131752 17.768381,24.49207 C17.76717,24.340435 17.765566,24.187023 17.740322,24.055689 C17.715078,23.924355 17.666195,23.815102 17.568853,23.740498 C17.374168,23.591291 16.985657,23.580685 16.659355,23.576988 C16.346584,23.573444 16.090971,23.576252 15.816987,23.577145 C15.543006,23.578037 15.250655,23.577013 14.976391,23.577145 C14.7021265,23.577276 14.44595,23.578566 14.117108,23.576277 C13.952688,23.575132 13.7701025,23.573093 13.715496,23.577145 C13.660888,23.581196 13.73426,23.59134 12.802242,23.553745 C12.780791,23.55288 12.758808,23.55199 12.62197,23.521566 C12.485131,23.49114 12.2334385,23.431183 12.030188,23.356537 C11.826937,23.28189 11.672128,23.192558 11.522415,23.084623 C11.372702,22.976686 11.228085,22.850147 11.101215,22.708387 C10.974348,22.566626 10.865229,22.409643 10.769154,22.230392 C10.6730795,22.051142 10.590049,21.849623 10.526615,21.645287 C10.399749,21.236616 10.35127,20.816677 10.333427,20.211496 C10.315586,19.606318 10.328382,18.815895 10.333427,18.072334 C10.338473,17.328772 10.335769,16.632069 10.334396,15.927314 C10.331652,14.517799 10.334234,13.076072 10.333427,11.654843 C11.866639,11.654843 14.846625,11.654843 15.888975,11.654843 C16.7722,11.654843 16.264236,11.654843 16.073084,11.654794 C15.881928,11.654745 16.007586,11.654646 16.092562,11.654453 C16.262516,11.654067 16.269754,11.653303 16.293005,11.6518 C16.339508,11.648794 16.450068,11.642832 16.531984,11.631629 C16.57294,11.626028 16.606737,11.619117 16.640886,11.610695 C16.675037,11.602273 16.70954,11.592339 16.741695,11.580706 C16.806004,11.557441 16.860916,11.52738 16.90731,11.48976 C16.953705,11.452142 16.99158,11.406964 17.021133,11.354523 C17.050688,11.30208 17.071922,11.242374 17.08653,11.176299 C17.10114,11.110226 17.109121,11.037783 17.11314,10.962615 C17.117157,10.887447 17.117208,10.809554 17.117237,10.733106 C17.117325,10.488448 17.117163,10.258593 17.117264,10.026188 C17.117365,9.793782 17.117727,9.558826 17.117264,9.324557 C17.1168,9.090288 17.115509,8.856706 17.117264,8.622928 C17.119019,8.389151 17.123816,8.15518 17.118708,7.917233 C17.112324,7.6198263 17.090466,7.31621 16.90731,7.159354 C16.724155,7.0024996 16.379704,6.992406 16.003792,6.9942713 z" stroke="Black" stroke-width="0" fill="#000000" fill-opacity="1" />
  </g>
  <g id="Default">
    <path d="M42.170902,6.3701353 C42.170902,5.7281933 42.170902,5.0862513 42.170902,4.4443097 C42.170902,4.341756 42.1685,4.239198 42.163372,4.136772 C42.158398,4.03739 42.150867,3.938132 42.140465,3.839171 C42.130383,3.743268 42.117603,3.6476436 42.101818,3.5525131 C42.086613,3.4608738 42.068615,3.3696928 42.047558,3.2792196 C42.02872,3.198321 42.00744,3.1179888 41.983505,3.038451 C41.966022,2.9803402 41.94712,2.9226537 41.926785,2.8654776 C41.91266,2.825763 41.89784,2.7862947 41.882362,2.7470868 C41.868675,2.7124143 41.854477,2.6779456 41.83973,2.6437104 C41.79946,2.550224 41.755127,2.4584804 41.706585,2.3690119 C41.667522,2.2970173 41.625736,2.2264962 41.58119,2.1577592 C41.537495,2.090334 41.491146,2.0246253 41.442204,1.9609072 C41.420643,1.9328406 41.39858,1.9051604 41.376022,1.8778907 C41.36506,1.8646421 41.353985,1.8514905 41.342796,1.8384371 C41.32165,1.8137759 41.300102,1.7894654 41.27814,1.765524 C41.235302,1.7188077 41.190926,1.6734972 41.14504,1.6297705 C41.094643,1.5817463 41.042423,1.5356326 40.988564,1.4915261 C40.93956,1.451396 40.8892,1.4129275 40.837616,1.3761712 C40.771614,1.3291411 40.70362,1.2849143 40.63395,1.2435108 C40.563057,1.2013786 40.49043,1.1621702 40.416405,1.1258157 C40.358902,1.0975755 40.300556,1.0710574 40.241512,1.0462021 C40.199867,1.0286713 40.157875,1.0119675 40.115585,0.99606586 C40.08976,0.9863577 40.06383,0.97694844 40.037792,0.96784234 C39.98366,0.94891304 39.92908,0.9312937 39.874115,0.91494477 C39.81344,0.89689606 39.752304,0.8803958 39.69081,0.8653636 C39.60259,0.84379727 39.51363,0.8252528 39.424183,0.80950093 C39.33145,0.7931702 39.238194,0.77984124 39.144634,0.76924264 C39.047047,0.7581881 38.94913,0.750104 38.85107,0.7446717 C38.762405,0.7397598 38.673622,0.7370161 38.584824,0.73623145 C38.520084,0.7356594 38.455338,0.7361287 38.39061,0.73762923 C38.339706,0.7388093 38.28882,0.74062717 38.237965,0.74312824 C38.188454,0.74556315 38.13897,0.7486456 38.089542,0.7524228 C38.03006,0.75696856 37.97065,0.76252043 37.91136,0.76914525 C37.81772,0.77960855 37.72437,0.79274815 37.631535,0.80886006 C37.54227,0.8243512 37.453484,0.84258986 37.365417,0.86384356 C37.27528,0.88559717 37.185898,0.9105094 37.097603,0.9388436 C37.014145,0.96562755 36.93166,0.9954693 36.850487,1.0285428 C36.809727,1.0451503 36.7693,1.0625727 36.729248,1.0808272 C36.63777,1.1225218 36.548267,1.1685578 36.46132,1.2190158 C36.392963,1.2586821 36.32619,1.3010814 36.26128,1.3461592 C36.228104,1.3691998 36.19541,1.3929403 36.163235,1.4173658 C36.100956,1.4646511 36.04062,1.5145038 35.982452,1.5667727 C35.94288,1.6023349 35.904312,1.6390156 35.866795,1.6767391 C35.821774,1.7220027 35.778267,1.7687678 35.736336,1.8169056 C35.69028,1.8697734 35.646133,1.924297 35.603996,1.9803355 C35.566525,2.0301728 35.530647,2.0812085 35.49639,2.13331 C35.451397,2.201738 35.40921,2.272005 35.369854,2.3438199 C35.329826,2.4168565 35.292725,2.4914944 35.258484,2.5674179 C35.22345,2.6451104 35.19141,2.724149 35.162243,2.8042288 C35.13342,2.8833528 35.1074,2.9634929 35.084007,3.0443892 C35.06088,3.124389 35.040314,3.2051282 35.022133,3.2863963 C35.001865,3.3769991 34.984554,3.4682593 34.969944,3.5599442 C34.954857,3.6545732 34.942642,3.7496538 34.93301,3.844992 C34.923096,3.9430907 34.915916,4.0414605 34.91117,4.1399446 C34.906292,4.2413206 34.90399,4.3428164 34.90399,6.3701353 C34.90399,6.4110727 34.90649,6.452033 34.91225,6.4925647 C34.917336,6.5283523 34.92497,6.563805 34.935627,6.598341 C34.942375,6.620207 34.950336,6.6417055 34.95959,6.662637 C34.974655,6.696697 34.99314,6.7292576 35.014942,6.7594433 C35.036625,6.7894616 35.061584,6.817131 35.089252,6.841743 C35.11696,6.866387 35.147377,6.887966 35.179703,6.9061356 C35.196007,6.9152994 35.21279,6.923596 35.22995,6.9310417 C35.247307,6.9385753 35.265045,6.945238 35.28305,6.951058 C35.301334,6.9569683 35.3199,6.9620104 35.338642,6.96626 C35.357784,6.9706 35.377117,6.974114 35.396553,6.976876 C35.416508,6.979711 35.436577,6.981753 35.456688,6.983099 C35.477425,6.984486 35.498207,6.985133 35.518993,6.985133 C37.531296,6.985133 39.543602,6.985133 41.555904,6.985133 C41.596844,6.985133 41.637802,6.9826365 41.678333,6.976876 C41.714123,6.971789 41.749573,6.964158 41.78411,6.9535 C41.805977,6.946751 41.827477,6.93879 41.848408,6.929534 C41.882465,6.9144735 41.915028,6.8959866 41.945213,6.8741837 C41.97523,6.852502 42.0029,6.8275414 42.02751,6.799873 C42.05216,6.772169 42.07374,6.74175 42.091904,6.7094254 C42.101067,6.6931224 42.109364,6.6763344 42.11681,6.6591783 C42.124344,6.641819 42.13101,6.6240835 42.13683,6.6060767 C42.14274,6.5877914 42.147778,6.5692267 42.15203,6.550485 C42.15637,6.5313406 42.159885,6.5120106 42.162643,6.492575 C42.16548,6.472618 42.167522,6.4525504 42.16887,6.432438 C42.170258,6.4117017 42.170902,6.390918 42.170902,6.3701353 z M41.15045,4.50418 C41.15045,4.9444485 41.15045,5.384717 41.15045,5.8249855 C39.408447,5.8249855 37.666447,5.8249855 35.924442,5.8249855 C35.924442,5.384717 35.924442,4.9444485 35.924442,4.50418 C35.924442,4.430995 35.926003,4.3578076 35.92933,4.2846985 C35.9311,4.2458816 35.93337,4.207086 35.936172,4.16833 C35.941105,4.10014 35.947697,4.032071 35.956165,3.9642298 C35.964382,3.8984241 35.974358,3.8328328 35.98633,3.767607 C35.99758,3.7062807 36.010593,3.6452773 36.025562,3.5847485 C36.047424,3.4963546 36.07346,3.4089735 36.10429,3.3232994 C36.118748,3.2831247 36.13426,3.2433255 36.150883,3.2039945 C36.17255,3.1527207 36.196106,3.102242 36.22164,3.052782 C36.248722,3.000337 36.278027,2.9490366 36.309616,2.8991773 C36.323853,2.8766992 36.33856,2.854514 36.35372,2.8326485 C36.382168,2.7916334 36.412243,2.751744 36.443893,2.7131495 C36.47693,2.672869 36.511684,2.6339993 36.54806,2.5967088 C36.58433,2.5595288 36.62221,2.5239189 36.66156,2.49002 C36.701305,2.4557858 36.742546,2.4232962 36.785088,2.392604 C36.828304,2.3614197 36.87286,2.3320904 36.918526,2.3046112 C36.969864,2.2737164 37.022606,2.2451608 37.076443,2.2188578 C37.127304,2.194008 37.179146,2.1711695 37.231735,2.150218 C37.276237,2.1324868 37.32128,2.1161077 37.36674,2.1009934 C37.413815,2.0853422 37.461338,2.0710475 37.509205,2.058008 C37.56986,2.0414834 37.631058,2.026974 37.69263,2.0142698 C37.757366,2.0009117 37.822514,1.9895493 37.887917,1.9799607 C37.920998,1.9751108 37.954147,1.9707146 37.987343,1.9667472 C38.009167,1.9641395 38.031013,1.9617168 38.05287,1.9594704 C38.123985,1.9521632 38.19529,1.9467199 38.266674,1.9429345 C38.341175,1.9389844 38.415764,1.93684 38.490364,1.9362458 C38.528263,1.9359441 38.56617,1.9360424 38.604065,1.9365511 C38.66143,1.9373208 38.718784,1.9390311 38.77609,1.9417772 C38.849075,1.945275 38.92198,1.950453 38.9947,1.9575621 C39.062916,1.9642302 39.13096,1.9725972 39.19872,1.9828727 C39.263653,1.9927187 39.328323,2.004317 39.392574,2.017907 C39.45228,2.0305352 39.511616,2.0448835 39.57044,2.0611343 C39.668015,2.0880904 39.764164,2.1202812 39.85793,2.1584203 C39.909355,2.179337 39.96006,2.202043 40.00982,2.226658 C40.059,2.2509863 40.10726,2.2771797 40.15437,2.3053114 C40.200157,2.3326557 40.244858,2.3618312 40.28824,2.392855 C40.32333,2.4179506 40.35756,2.4442558 40.390804,2.4717515 C40.430767,2.5048027 40.469307,2.5395741 40.50626,2.5759559 C40.53312,2.602398 40.559143,2.6296906 40.584282,2.65777 C40.61889,2.6964173 40.65183,2.736555 40.683018,2.77801 C40.714645,2.8200543 40.744473,2.8634534 40.77248,2.907994 C40.80107,2.9534671 40.82777,3.0001297 40.8526,3.0477626 C40.87977,3.0998814 40.904697,3.1531625 40.927513,3.2073267 C40.95813,3.2799978 40.984943,3.3542593 41.008247,3.4295943 C41.024826,3.483179 41.03963,3.5373073 41.052834,3.591821 C41.06652,3.6483347 41.078484,3.7052627 41.088913,3.7624674 C41.100758,3.8274288 41.110626,3.892747 41.118748,3.9582777 C41.127224,4.026675 41.133804,4.0953045 41.13873,4.16405 C41.141533,4.2032514 41.143803,4.242491 41.14557,4.2817526 C41.147224,4.318534 41.14844,4.3553348 41.149246,4.392145 C41.15006,4.429484 41.15045,4.4668317 41.15045,4.50418 z" stroke="Black" stroke-width="0" fill="#000000" fill-opacity="1" />
    <path d="M42.24075,10.395577 C42.24075,10.368196 42.239674,10.34081 42.23726,10.313534 C42.23496,10.287497 42.231438,10.26156 42.226444,10.2359 C42.221638,10.21119 42.215466,10.186736 42.207726,10.162784 C42.203182,10.148724 42.1981,10.134838 42.192444,10.121188 C42.18315,10.098766 42.17231,10.076982 42.159847,10.056157 C42.147514,10.035545 42.133595,10.015874 42.11817,9.9974575 C42.11049,9.988283 42.102432,9.979421 42.094032,9.970899 C42.089832,9.966637 42.08555,9.962459 42.081177,9.958371 C42.07775,9.955165 42.074272,9.952014 42.070747,9.948914 C42.066402,9.945086 42.061985,9.941334 42.057503,9.937662 C42.039524,9.922933 42.020477,9.909505 42.00061,9.897442 C41.980564,9.885272 41.959682,9.874492 41.938198,9.865089 C41.91635,9.855527 41.893883,9.847388 41.87103,9.8405695 C41.84761,9.833583 41.823788,9.827982 41.799747,9.823599 C41.774887,9.819067 41.749794,9.815838 41.72461,9.81372 C41.698376,9.811514 41.67204,9.810514 41.64571,9.810514 C39.573536,9.810514 37.501358,9.810514 35.429184,9.810514 C35.405556,9.810514 35.381927,9.811289 35.358356,9.812991 C35.335655,9.814631 35.31301,9.817132 35.290524,9.820647 C35.269253,9.823973 35.24811,9.828207 35.227238,9.833478 C35.210487,9.837706 35.1939,9.842603 35.177567,9.848224 C35.16428,9.852797 35.151157,9.857849 35.138252,9.863408 C35.121403,9.870668 35.104923,9.878792 35.08894,9.887809 C35.070847,9.898018 35.053394,9.909372 35.03678,9.921846 C35.024178,9.931311 35.01206,9.94142 35.00049,9.952128 C34.987183,9.964444 34.974617,9.977552 34.962845,9.9913435 C34.94748,10.009348 34.933483,10.028517 34.920956,10.048601 C34.91021,10.065836 34.900547,10.083746 34.891964,10.102155 C34.881664,10.124238 34.87292,10.147039 34.865623,10.170283 C34.855507,10.202481 34.848164,10.235528 34.843136,10.268904 C34.839943,10.290103 34.83769,10.311434 34.836227,10.332821 C34.83516,10.3484535 34.834522,10.364116 34.834267,10.379784 C34.83408,10.391219 34.834103,10.402658 34.83434,10.414094 C34.83462,10.427621 34.8352,10.441143 34.83613,10.454641 C34.83758,10.475803 34.839886,10.496908 34.843147,10.517867 C34.84639,10.538708 34.85058,10.559404 34.855827,10.579832 C34.860977,10.599856 34.86714,10.619622 34.87441,10.638979 C34.881588,10.658104 34.88984,10.676829 34.89919,10.694992 C34.90847,10.713016 34.91883,10.730484 34.930237,10.747242 C34.940872,10.76287 34.952415,10.77788 34.964806,10.792159 C34.975166,10.804102 34.98612,10.815534 34.997627,10.826372 C35.010056,10.838074 35.023132,10.849083 35.03678,10.859333 C35.053394,10.87181 35.07085,10.8831625 35.08894,10.893369 C35.11716,10.909285 35.14693,10.922411 35.177567,10.932957 C35.1939,10.93858 35.210487,10.943469 35.227238,10.947696 C35.24811,10.952964 35.269253,10.957203 35.290524,10.96053 C35.31301,10.9640465 35.335655,10.966545 35.358356,10.9681835 C35.381927,10.969885 35.405556,10.970661 35.429184,10.970661 C37.501358,10.970661 39.573536,10.970661 41.64571,10.970661 C41.682705,10.970661 41.719727,10.968609 41.75642,10.9639225 C41.776802,10.96132 41.79708,10.957905 41.81717,10.95357 C41.851177,10.946232 41.884636,10.936256 41.916897,10.923253 C41.932697,10.916885 41.948208,10.909792 41.96334,10.901968 C41.978313,10.894227 41.992912,10.885771 42.00705,10.876599 C42.03715,10.85707 42.065163,10.834296 42.090324,10.808716 C42.11545,10.783177 42.137733,10.754841 42.15665,10.72442 C42.16956,10.703663 42.1809,10.681936 42.190674,10.659529 C42.198822,10.640841 42.205887,10.621678 42.211903,10.6022 C42.22183,10.570062 42.2289,10.537059 42.23355,10.503742 C42.238552,10.467923 42.24075,10.431742 42.24075,10.395577 z" stroke="Black" stroke-width="0" fill="#000000" fill-opacity="1" />
    <path d="M39.053856,15.306748 C39.03139,15.237963 39.006054,15.170105 38.977627,15.103561 C38.965694,15.07563 38.953217,15.04793 38.9402,15.020484 C38.928318,14.995427 38.915993,14.970582 38.903202,14.945975 C38.88148,14.90419 38.85843,14.863095 38.834007,14.82283 C38.80556,14.77593 38.775253,14.730155 38.743057,14.685742 C38.711376,14.642034 38.67787,14.599644 38.64258,14.558796 C38.607647,14.51837 38.57097,14.479453 38.532635,14.44224 C38.48918,14.400056 38.443604,14.36006 38.39613,14.322455 C38.34065,14.278512 38.282585,14.237835 38.222378,14.200627 C38.197914,14.185509 38.173096,14.170963 38.147945,14.157015 C38.100662,14.130788 38.0522,14.106671 38.0028,14.084685 C37.952763,14.062416 37.901752,14.042335 37.850002,14.024404 C37.797318,14.006147 37.743855,13.990121 37.689854,13.976228 C37.634598,13.962014 37.578773,13.950035 37.522587,13.940131 C37.464836,13.929953 37.4067,13.921966 37.348366,13.915999 C37.28819,13.909844 37.2278,13.905839 37.167343,13.903756 C37.136646,13.9026985 37.105934,13.902138 37.075222,13.902022 C37.030422,13.9018545 36.98562,13.9026375 36.940857,13.904442 C36.894432,13.906314 36.848045,13.9092865 36.80177,13.913431 C36.757256,13.9174185 36.71284,13.922492 36.66859,13.928738 C36.6251,13.934877 36.581764,13.942147 36.53867,13.9506445 C36.496494,13.958961 36.45455,13.9684515 36.412926,13.979181 C36.336277,13.998938 36.260696,14.022898 36.186848,14.051376 C36.103687,14.083445 36.02272,14.121241 35.944984,14.164837 C35.877495,14.20269 35.812443,14.244916 35.750435,14.29121 C35.712757,14.319339 35.67621,14.34897 35.640873,14.379989 C35.579437,14.433925 35.521687,14.492054 35.467964,14.553679 C35.409805,14.620386 35.356365,14.691188 35.307907,14.765228 C35.261787,14.835687 35.220177,14.9090805 35.182987,14.984647 C35.144596,15.06265 35.110912,15.14297 35.081535,15.224745 C35.050915,15.309962 35.024975,15.396762 35.00329,15.484874 C34.980522,15.57739 34.962452,15.671355 34.947906,15.764744 C34.932556,15.863334 34.921135,15.961282 34.914864,16.063911 C34.90822,16.172636 34.907352,16.286615 34.906628,16.402472 C34.901947,17.152534 34.903225,17.9812 34.90609,18.74916 C34.90625,18.792353 34.906418,18.835354 34.91168,18.874212 C34.914227,18.89299 34.917957,18.9108 34.922287,18.928822 C34.92654,18.946545 34.93137,18.964474 34.937084,18.982029 C34.942722,18.99936 34.949223,19.016327 34.956547,19.032957 C34.963806,19.04944 34.971874,19.06559 34.980766,19.081266 C34.990425,19.098295 35.001057,19.114767 35.012596,19.130579 C35.030117,19.154587 35.04973,19.177076 35.071262,19.197557 C35.09013,19.215506 35.11047,19.23191 35.132023,19.246544 C35.148144,19.25749 35.16494,19.267447 35.18222,19.276403 C35.195892,19.28349 35.20986,19.28995 35.224182,19.295801 C35.237576,19.301273 35.25127,19.306211 35.264816,19.31064 C35.280323,19.315706 35.295628,19.320105 35.312363,19.32386 C35.331898,19.328243 35.353382,19.331749 35.369335,19.334587 C35.38568,19.337494 35.396214,19.339705 35.42778,19.34084 C35.460274,19.342009 35.515064,19.34204 35.570198,19.342072 C37.43865,19.343157 39.705566,19.34358 41.54699,19.34173 C41.614937,19.341661 41.682304,19.34159 41.722404,19.339783 C41.761063,19.338037 41.774387,19.33468 41.794582,19.330225 C41.814194,19.3259 41.840286,19.32054 41.86413,19.31381 C41.887478,19.307224 41.90868,19.299324 41.92978,19.290071 C41.95058,19.280952 41.971287,19.270515 41.991074,19.258745 C42.01122,19.24676 42.03041,19.233389 42.048588,19.218716 C42.06807,19.202993 42.086388,19.185776 42.103256,19.16725 C42.119694,19.149199 42.134758,19.129906 42.148296,19.10959 C42.16071,19.090958 42.171837,19.071466 42.181633,19.051332 C42.189167,19.03586 42.195915,19.020006 42.2019,19.00387 C42.20877,18.985336 42.21463,18.96643 42.219555,18.947285 C42.225437,18.924402 42.229973,18.901176 42.2333,18.877785 C42.236744,18.85358 42.238888,18.829199 42.23995,18.804773 C42.240585,18.790123 42.24083,18.775457 42.24074,18.760794 C42.24066,18.747683 42.240314,18.734571 42.23969,18.721474 C42.239113,18.70942 42.238297,18.697376 42.237225,18.685354 C42.23608,18.672546 42.234646,18.659763 42.232887,18.647022 C42.22953,18.622719 42.225006,18.598574 42.219078,18.574768 C42.214165,18.555061 42.208298,18.535591 42.20139,18.516493 C42.195393,18.49991 42.18861,18.483608 42.180984,18.467709 C42.170937,18.446772 42.15942,18.42653 42.146446,18.40727 C42.140095,18.397839 42.13339,18.38864 42.126343,18.379711 C42.121334,18.373365 42.116158,18.367155 42.110813,18.361094 C42.107002,18.356773 42.103107,18.352528 42.099133,18.348358 C42.096466,18.345562 42.09376,18.342802 42.091026,18.340076 C42.087063,18.336132 42.083023,18.332264 42.07892,18.32847 C42.07525,18.325085 42.07152,18.32176 42.067745,18.318493 C42.063942,18.315197 42.060085,18.311962 42.056183,18.308784 C42.05388,18.30691 42.05155,18.305056 42.049213,18.30322 C42.044796,18.299765 42.040325,18.296383 42.035793,18.29308 C42.02083,18.282167 42.005257,18.272099 41.989174,18.262901 C41.969486,18.25164 41.94903,18.241684 41.928112,18.232996 C41.90685,18.224167 41.885105,18.216648 41.862816,18.21038 C41.84001,18.203968 41.81664,18.198866 41.79383,18.194752 C41.7703,18.190508 41.74737,18.187315 41.721516,18.18565 C41.694653,18.183922 41.664627,18.183842 41.634552,18.183765 C40.85264,18.181799 40.036137,18.183086 39.237263,18.182716 C39.23759,17.810476 39.236458,17.490717 39.238144,17.069675 C39.23827,17.039433 39.238403,17.008665 39.240257,16.968254 C39.241783,16.934967 39.24448,16.895138 39.247982,16.857336 C39.251617,16.818096 39.25613,16.781042 39.26191,16.743578 C39.26722,16.70914 39.273605,16.67436 39.281216,16.640007 C39.288624,16.606577 39.2972,16.57355 39.30723,16.540884 C39.31063,16.52982 39.314198,16.518795 39.31794,16.507841 C39.320488,16.500383 39.323116,16.492956 39.325832,16.485561 C39.329815,16.474726 39.33398,16.463957 39.33834,16.453266 C39.341137,16.446413 39.344013,16.43959 39.34697,16.432806 C39.349884,16.426115 39.35288,16.419456 39.35597,16.412846 C39.361946,16.400059 39.36829,16.387442 39.375095,16.375076 C39.38191,16.362705 39.38918,16.35059 39.39683,16.338718 C39.40477,16.326403 39.413116,16.314354 39.42183,16.302572 C39.43662,16.282572 39.452454,16.263348 39.4691,16.244862 C39.4892,16.222548 39.51048,16.201311 39.532627,16.18102 C39.545887,16.168869 39.559464,16.157059 39.573277,16.145561 C39.580746,16.139341 39.588284,16.133215 39.59592,16.127169 C39.611256,16.115036 39.627,16.103233 39.642788,16.091814 C39.676197,16.067654 39.70983,16.045202 39.74587,16.0234 C39.78544,15.999457 39.827908,15.976296 39.870476,15.953077 C40.51688,15.60054 41.18769,15.234933 41.83641,14.880503 C41.860313,14.867445 41.884182,14.8544035 41.906403,14.840873 C41.92855,14.827389 41.949066,14.813418 41.969288,14.798511 C41.987896,14.784797 42.006256,14.770289 42.023857,14.755024 C42.03936,14.74158 42.05427,14.727548 42.068573,14.712888 C42.082626,14.698477 42.09609,14.683456 42.10881,14.667845 C42.114845,14.660446 42.120712,14.652914 42.126404,14.645253 C42.13046,14.639798 42.134426,14.634276 42.13828,14.628676 C42.14658,14.616613 42.15435,14.604183 42.161568,14.591443 C42.173656,14.570111 42.184193,14.547905 42.19325,14.525121 C42.20249,14.501869 42.210194,14.478013 42.2165,14.453801 C42.22299,14.42887 42.227993,14.403561 42.23173,14.378071 C42.23521,14.354359 42.237587,14.33049 42.239025,14.306566 C42.239937,14.291366 42.240467,14.276143 42.24067,14.260918 C42.240772,14.252745 42.240784,14.244572 42.240677,14.236399 C42.240623,14.232173 42.24054,14.227948 42.240417,14.223725 C42.240135,14.2135515 42.23966,14.203385 42.238976,14.193232 C42.237347,14.16901 42.234547,14.144861 42.230328,14.120954 C42.22542,14.09318 42.218605,14.065731 42.20953,14.039032 C42.200626,14.012843 42.18955,13.987374 42.17614,13.963181 C42.165123,13.943294 42.152527,13.924269 42.13844,13.906424 C42.132477,13.898874 42.126247,13.891535 42.11977,13.884425 C42.11628,13.880594 42.112717,13.876829 42.109093,13.873125 C42.10049,13.864331 42.09155,13.855873 42.08229,13.847779 C42.06735,13.834722 42.051575,13.822611 42.035072,13.811588 C42.016354,13.799082 41.996696,13.787975 41.976322,13.778385 C41.955868,13.768756 41.934696,13.760655 41.913067,13.75408 C41.891228,13.747438 41.868923,13.74235 41.84639,13.738676 C41.82887,13.735819 41.811207,13.73382 41.7935,13.732642 C41.76185,13.730537 41.730045,13.731065 41.69845,13.73418 C41.674923,13.736501 41.651505,13.740256 41.62851,13.745249 C41.604725,13.750412 41.581387,13.7569 41.557915,13.76475 C41.53392,13.772776 41.509785,13.782226 41.488163,13.792147 C41.46606,13.802286 41.446587,13.812917 41.426884,13.823663 C40.895382,14.113537 40.199062,14.4869795 39.789127,14.716875 C39.584156,14.831822 39.450783,14.910885 39.336933,15.00225 C39.223087,15.093616 39.128765,15.197285 39.05504,15.30501 C39.054646,15.305589 39.05425,15.306166 39.053856,15.306748 z M38.28666,16.532623 C38.28666,17.082655 38.28666,17.632685 38.28666,18.182716 C37.489277,18.182716 36.69189,18.182716 35.89451,18.182716 C35.89451,17.632685 35.89451,17.082655 35.89451,16.532623 C35.89451,16.480898 35.895573,16.429169 35.897892,16.377497 C35.899994,16.330757 35.90312,16.284065 35.907433,16.237478 C35.91171,16.19127 35.917152,16.14517 35.923977,16.099268 C35.931454,16.04897 35.94059,15.998912 35.951694,15.949285 C35.964283,15.893044 35.979397,15.8373575 35.99762,15.782688 C36.009678,15.746524 36.02309,15.710807 36.038033,15.675736 C36.052185,15.642534 36.06771,15.609914 36.084743,15.578094 C36.10097,15.547778 36.118565,15.51819 36.137615,15.489566 C36.155937,15.462038 36.175606,15.435403 36.196613,15.409869 C36.217064,15.385016 36.238785,15.361207 36.261715,15.338625 C36.284306,15.316377 36.30807,15.295319 36.332897,15.275598 C36.35773,15.255873 36.38362,15.237488 36.410408,15.220511 C36.438522,15.202696 36.467617,15.186434 36.497475,15.171732 C36.539146,15.151217 36.5823,15.133741 36.626366,15.11907 C36.679813,15.101274 36.734604,15.087602 36.790012,15.077399 C36.827717,15.0704565 36.865704,15.065118 36.903835,15.061172 C36.944374,15.056975 36.985073,15.054352 37.025806,15.053084 C37.045525,15.052471 37.06525,15.052175 37.084976,15.052168 C37.09581,15.052164 37.106644,15.052248 37.117474,15.0524235 C37.1308,15.052639 37.14412,15.052997 37.157436,15.053499 C37.177906,15.054274 37.19836,15.055394 37.218792,15.056888 C37.243015,15.058659 37.26721,15.060953 37.29133,15.063822 C37.32046,15.067285 37.349495,15.071583 37.37836,15.076817 C37.4089,15.082352 37.439255,15.088934 37.469315,15.096661 C37.500423,15.104657 37.531216,15.113881 37.56155,15.124446 C37.603886,15.13919 37.645325,15.156544 37.685364,15.176697 C37.714527,15.191375 37.74295,15.207538 37.770435,15.225164 C37.797333,15.242413 37.823334,15.261065 37.848274,15.281046 C37.873253,15.301064 37.89716,15.322413 37.919907,15.34494 C37.942997,15.367809 37.96489,15.39189 37.9855,15.417021 C38.00664,15.4428005 38.026432,15.4696865 38.044865,15.49747 C38.06401,15.52633 38.081688,15.556159 38.097977,15.5867195 C38.115067,15.618769 38.130634,15.651624 38.144814,15.685062 C38.15978,15.720356 38.173195,15.756299 38.185246,15.792693 C38.193535,15.817735 38.201176,15.842988 38.20822,15.868409 C38.21722,15.90089 38.225243,15.933641 38.23241,15.966578 C38.241272,16.007292 38.248817,16.04829 38.255222,16.089464 C38.26228,16.134815 38.26794,16.180382 38.272434,16.226059 C38.277393,16.276455 38.280922,16.326988 38.28323,16.377575 C38.28558,16.429222 38.28666,16.480923 38.28666,16.532623 z" stroke="Black" stroke-width="0" fill="#000000" fill-opacity="1" />
    <path d="M40.976433,22.754128 C41.035217,22.935917 41.08401,23.122757 41.12282,23.314644 C41.141815,23.408556 41.157665,23.503103 41.170403,23.598068 C41.183273,23.69402 41.192966,23.790396 41.19957,23.886982 C41.203445,23.943747 41.20626,24.000584 41.208035,24.057453 C41.209026,24.08908 41.209694,24.120718 41.21004,24.152359 C41.21069,24.210783 41.21025,24.269218 41.20856,24.327621 C41.20706,24.379541 41.20457,24.431435 41.200996,24.483253 C41.198208,24.523651 41.194756,24.564003 41.19059,24.60428 C41.184418,24.664007 41.176674,24.723577 41.167187,24.782867 C41.158066,24.839882 41.147327,24.896639 41.13481,24.953007 C41.12275,25.007294 41.109035,25.061218 41.093513,25.11462 C41.076096,25.174555 41.056396,25.233837 41.034233,25.292189 C41.012695,25.348904 40.988823,25.404743 40.962498,25.459406 C40.94037,25.505362 40.916496,25.550482 40.89086,25.59458 C40.86625,25.636919 40.840008,25.678312 40.812157,25.718596 C40.78456,25.758507 40.755383,25.797329 40.72468,25.83491 C40.69406,25.872398 40.661922,25.908657 40.62838,25.943558 C40.594753,25.978546 40.559715,26.012175 40.52342,26.044382 C40.48676,26.076914 40.448814,26.107996 40.40975,26.137596 C40.37007,26.167662 40.32924,26.1962 40.287403,26.223185 C40.24479,26.250679 40.20113,26.27656 40.15662,26.300865 C40.063015,26.351976 39.96564,26.396101 39.865917,26.433914 C39.803593,26.457544 39.74035,26.478712 39.676445,26.49765 C39.61718,26.515213 39.557346,26.53086 39.497116,26.544762 C39.438187,26.558365 39.37888,26.570297 39.31931,26.58073 C39.257713,26.591515 39.19584,26.600693 39.133785,26.608427 C39.068436,26.616573 39.002884,26.623121 38.93723,26.628242 C38.88581,26.632252 38.834324,26.635386 38.782803,26.637718 C38.744495,26.639452 38.706173,26.640741 38.66784,26.64162 C38.63463,26.64238 38.601406,26.64283 38.56818,26.642982 C38.55194,26.643059 38.5357,26.64306 38.51946,26.642992 C38.476788,26.642813 38.43412,26.642145 38.391468,26.640955 C38.302906,26.63848 38.214397,26.63375 38.126102,26.626411 C38.041653,26.619396 37.957394,26.609991 37.873528,26.597847 C37.7933,26.586235 37.71343,26.572117 37.634155,26.555157 C37.558437,26.538956 37.483265,26.52016 37.40894,26.498455 C37.33987,26.478281 37.27153,26.455593 37.20421,26.430185 C37.13771,26.405087 37.072205,26.377333 37.00812,26.346586 C36.931946,26.310043 36.857777,26.269272 36.78647,26.223965 C36.734245,26.190783 36.68356,26.155169 36.63474,26.117151 C36.58415,26.077751 36.535564,26.035772 36.489357,25.991318 C36.44355,25.947243 36.400074,25.900738 36.359177,25.85207 C36.318058,25.803135 36.279545,25.752014 36.243763,25.699055 C36.207455,25.645315 36.173958,25.589678 36.14333,25.532515 C36.11215,25.474321 36.083942,25.414547 36.058662,25.353563 C36.032726,25.290998 36.009876,25.227167 35.989952,25.162441 C35.969105,25.094736 35.951466,25.026052 35.936733,24.956757 C35.9213,24.88415 35.90906,24.81087 35.899662,24.737238 C35.88658,24.634743 35.879017,24.531563 35.876038,24.428276 C35.8746,24.378172 35.874233,24.32804 35.8748,24.277918 C35.87523,24.240252 35.87618,24.20259 35.877666,24.164953 C35.87856,24.14237 35.879642,24.119797 35.88093,24.097233 C35.882454,24.0706 35.884266,24.043985 35.886368,24.017391 C35.89316,23.931494 35.90301,23.84583 35.91628,23.76069 C35.92641,23.695652 35.938538,23.630919 35.952805,23.566658 C35.959873,23.534815 35.967464,23.503088 35.975597,23.471498 C35.98162,23.448095 35.987934,23.424768 35.994564,23.40153 C36.001144,23.37848 36.008026,23.355522 36.015263,23.332672 C36.024345,23.303988 36.03398,23.275476 36.044144,23.247156 C36.063286,23.193819 36.084297,23.141157 36.10708,23.089272 C36.12693,23.044054 36.148125,22.999426 36.17056,22.95543 C36.193153,22.911118 36.217007,22.867445 36.24202,22.824455 C36.293674,22.735672 36.350285,22.649796 36.410942,22.566898 C36.41163,22.565954 36.412323,22.565012 36.41301,22.56407 C36.413643,22.563087 36.414272,22.562105 36.414906,22.561123 C36.43345,22.532274 36.450176,22.502232 36.464283,22.47097 C36.477802,22.441008 36.488914,22.409927 36.496803,22.37802 C36.500675,22.36237 36.50377,22.346521 36.50601,22.330557 C36.508232,22.31472 36.509617,22.298767 36.510105,22.282784 C36.51054,22.268572 36.510265,22.254337 36.509262,22.240154 C36.50898,22.236168 36.50864,22.232185 36.508244,22.228209 C36.507854,22.22436 36.507412,22.220516 36.50693,22.216679 C36.504498,22.197464 36.500957,22.178389 36.49626,22.1596 C36.492214,22.143421 36.48731,22.127457 36.481533,22.111813 C36.476498,22.098185 36.4708,22.0848 36.464447,22.071733 C36.455368,22.05305 36.444954,22.035015 36.433334,22.017794 C36.42521,22.005749 36.41649,21.994102 36.407234,21.982899 C36.400623,21.974892 36.393734,21.96711 36.3866,21.959564 C36.37674,21.949133 36.366413,21.93915 36.355736,21.929558 C36.345474,21.92034 36.334892,21.911484 36.324013,21.903004 C36.302456,21.886189 36.279743,21.870844 36.256042,21.857218 C36.23231,21.843575 36.207584,21.831654 36.182148,21.821533 C36.165752,21.815008 36.14906,21.809233 36.13215,21.80419 C36.118896,21.80024 36.10551,21.79674 36.092014,21.793713 C36.072723,21.789383 36.053215,21.786016 36.03358,21.78368 C36.019867,21.782047 36.00609,21.780916 35.99229,21.780296 C35.97849,21.779675 35.96466,21.779568 35.950848,21.779974 C35.925224,21.780727 35.89965,21.783253 35.874367,21.787472 C35.86068,21.789757 35.847076,21.79254 35.833584,21.795786 C35.82678,21.797426 35.820007,21.799183 35.813263,21.801054 C35.809277,21.802162 35.8053,21.803307 35.801342,21.804506 C35.797733,21.8056 35.794132,21.806734 35.79055,21.807917 C35.787983,21.808765 35.78542,21.809635 35.782867,21.81053 C35.775707,21.813032 35.768604,21.815708 35.761578,21.81856 C35.74138,21.82675 35.72177,21.836382 35.702908,21.8473 C35.6897,21.854942 35.676865,21.863214 35.664425,21.872053 C35.65549,21.8784 35.64676,21.885042 35.63825,21.89195 C35.624413,21.90318 35.611153,21.915112 35.598465,21.92762 C35.57598,21.949787 35.555294,21.97376 35.536354,21.999025 C35.478928,22.073519 35.424625,22.15043 35.37375,22.229544 C35.32318,22.308174 35.275993,22.38898 35.232433,22.4717 C35.188946,22.554293 35.149075,22.63879 35.112957,22.724863 C35.081966,22.798714 35.05374,22.873722 35.028305,22.949661 C35.018856,22.977863 35.009796,23.006195 35.00112,23.034643 C34.996487,23.049843 34.991966,23.065075 34.987545,23.080336 C34.980118,23.105955 34.972973,23.131655 34.966057,23.157417 C34.961178,23.175598 34.956417,23.19381 34.95177,23.21205 C34.944252,23.24158 34.937027,23.271183 34.930115,23.30086 C34.91816,23.352177 34.90714,23.40371 34.897053,23.455425 C34.883846,23.523125 34.872234,23.591135 34.86221,23.659378 C34.847797,23.75749 34.836655,23.856083 34.828773,23.954933 C34.82426,24.011517 34.820816,24.068184 34.81841,24.124895 C34.816483,24.170343 34.81522,24.21582 34.814613,24.261305 C34.81405,24.30346 34.814045,24.345623 34.814568,24.387777 C34.815353,24.451212 34.81732,24.514631 34.820553,24.577986 C34.825092,24.667023 34.832115,24.755936 34.841885,24.844553 C34.85412,24.955482 34.870655,25.065948 34.891922,25.175508 C34.913086,25.284557 34.938934,25.39271 34.96984,25.499405 C34.988407,25.563522 35.008804,25.62711 35.031082,25.690035 C35.048977,25.74058 35.06809,25.790693 35.08838,25.840324 C35.122795,25.924515 35.160618,26.007317 35.20191,26.088358 C35.24887,26.180534 35.30032,26.270432 35.356266,26.357447 C35.411606,26.44352 35.471348,26.526777 35.535255,26.606699 C35.59899,26.686409 35.66687,26.762804 35.738503,26.835505 C35.81031,26.908382 35.885883,26.977547 35.964706,27.042774 C36.021477,27.089748 36.079933,27.134684 36.13991,27.177486 C36.181942,27.207478 36.22472,27.236425 36.268185,27.264301 C36.345486,27.313887 36.42495,27.36009 36.506187,27.402935 C36.559437,27.43102 36.613453,27.457664 36.668125,27.482878 C36.707752,27.501156 36.747726,27.51868 36.788002,27.535473 C36.838535,27.556541 36.889545,27.57645 36.94097,27.595236 C37.008686,27.619972 37.077114,27.642754 37.146122,27.663595 C37.25446,27.696314 37.36423,27.72425 37.474922,27.747812 C37.589653,27.772234 37.705376,27.791954 37.82165,27.807419 C37.94253,27.823494 38.06401,27.834976 38.185726,27.842402 C38.24523,27.846035 38.3048,27.848701 38.364388,27.850468 C38.4184,27.852068 38.472435,27.852932 38.52647,27.853079 C38.603336,27.853287 38.680206,27.852041 38.757023,27.849304 C38.83707,27.846455 38.917065,27.841986 38.99692,27.835716 C39.1516,27.823574 39.30577,27.804682 39.45861,27.777979 C39.60846,27.751799 39.757027,27.718107 39.903183,27.67594 C40.03627,27.63754 40.167362,27.592113 40.29536,27.539171 C40.384964,27.50211 40.47305,27.46137 40.559193,27.416859 C40.630356,27.380085 40.70019,27.34074 40.768402,27.29874 C40.836292,27.256939 40.902573,27.212513 40.96697,27.165504 C41.022263,27.12514 41.076164,27.082869 41.12851,27.038748 C41.18054,26.994894 41.231026,26.949205 41.279842,26.901794 C41.32868,26.854364 41.37583,26.80521 41.421196,26.754452 C41.466526,26.703726 41.510067,26.651402 41.551758,26.597645 C41.58869,26.550026 41.624172,26.501286 41.658173,26.45153 C41.691864,26.402227 41.724094,26.35193 41.754887,26.300766 C41.772964,26.270721 41.790546,26.24038 41.80763,26.209755 C41.816223,26.194342 41.82469,26.178856 41.833027,26.163296 C41.861526,26.110104 41.888443,26.056067 41.913807,26.001314 C41.942554,25.939247 41.969303,25.876259 41.994095,25.812513 C42.02093,25.743488 42.045475,25.673578 42.06782,25.602972 C42.090393,25.531658 42.110725,25.459635 42.12893,25.387083 C42.14774,25.31214 42.16428,25.23663 42.17871,25.16072 C42.193466,25.083115 42.20602,25.005095 42.21653,24.926798 C42.227345,24.846281 42.236,24.765474 42.24269,24.684513 C42.252697,24.56343 42.25831,24.441998 42.26009,24.320515 C42.261402,24.231081 42.26064,24.141619 42.257854,24.052221 C42.25365,23.917469 42.244854,23.78286 42.231667,23.648687 C42.22025,23.532534 42.205547,23.416706 42.187767,23.301353 C42.181767,23.262428 42.17542,23.223557 42.168716,23.184746 C42.162857,23.15082 42.156727,23.11694 42.15036,23.083105 C42.14105,23.0336 42.13123,22.98419 42.120907,22.934885 C42.105892,22.863163 42.089806,22.79166 42.07248,22.72046 C42.053112,22.640894 42.032192,22.561705 42.009438,22.48304 C41.987923,22.40864 41.96477,22.33471 41.939686,22.261435 C41.91598,22.192184 41.89055,22.12352 41.863117,22.055662 C41.851173,22.022905 41.83634,21.991173 41.818314,21.96133 C41.807518,21.943462 41.795574,21.926271 41.78249,21.910004 C41.76881,21.892994 41.75388,21.876995 41.737823,21.862207 C41.71877,21.84466 41.69813,21.82882 41.67623,21.814993 C41.661587,21.805744 41.646374,21.7974 41.63081,21.789793 C41.615875,21.782497 41.60061,21.775885 41.58511,21.769886 C41.569405,21.76381 41.55345,21.758368 41.537308,21.75357 C41.51961,21.748314 41.501682,21.743834 41.483612,21.740059 C41.46362,21.735886 41.443443,21.732573 41.423176,21.730057 C41.38778,21.725664 41.352093,21.7237 41.316425,21.7237 C40.46161,21.7237 39.606796,21.7237 38.751984,21.7237 C38.7202,21.7237 38.6884,21.72558 38.656906,21.729874 C38.63542,21.732803 38.614082,21.736856 38.593067,21.742197 C38.57149,21.747679 38.550262,21.754519 38.529613,21.762833 C38.50493,21.772776 38.48107,21.784826 38.458557,21.799019 C38.44149,21.809776 38.42519,21.821762 38.409847,21.834864 C38.392426,21.849743 38.376236,21.86606 38.361416,21.883532 C38.34831,21.898983 38.33627,21.915335 38.32536,21.932407 C38.317596,21.94456 38.310406,21.957073 38.30382,21.9699 C38.290546,21.99577 38.279762,22.022907 38.271343,22.050741 C38.26708,22.064848 38.263416,22.079132 38.260334,22.09354 C38.25721,22.108114 38.254673,22.122816 38.252674,22.137585 C38.24858,22.167849 38.24675,22.198397 38.24675,22.228935 C38.24675,22.81766 38.24675,23.406384 38.24675,23.995108 C38.24675,24.033213 38.249348,24.071348 38.255375,24.108973 C38.258324,24.127398 38.262096,24.1457 38.266777,24.163767 C38.271374,24.1815 38.27684,24.199003 38.28326,24.216158 C38.295204,24.248085 38.310444,24.278803 38.328957,24.307425 C38.340157,24.324741 38.352554,24.341288 38.36608,24.356855 C38.3754,24.36758 38.38525,24.377842 38.395638,24.387535 C38.408997,24.400002 38.42324,24.41153 38.43821,24.422014 C38.45318,24.4325 38.468876,24.441944 38.485138,24.45028 C38.495304,24.455488 38.505688,24.460264 38.51625,24.464611 C38.530552,24.4705 38.545177,24.475603 38.560024,24.47995 C38.57884,24.485456 38.59801,24.489746 38.617355,24.49293 C38.645744,24.4976 38.674507,24.499891 38.703274,24.500284 C38.70816,24.500349 38.713043,24.50036 38.71793,24.500319 C38.731373,24.5002 38.74482,24.499668 38.758232,24.49868 C38.77982,24.49709 38.801323,24.494316 38.822575,24.490215 C38.84622,24.485653 38.869553,24.479445 38.89227,24.471457 C38.90974,24.465313 38.92684,24.458115 38.94342,24.449856 C38.959854,24.44167 38.97577,24.432444 38.99104,24.422253 C39.0217,24.40179 39.049763,24.377441 39.07439,24.350012 C39.086758,24.336243 39.098255,24.321697 39.10882,24.306503 C39.118584,24.292461 39.127556,24.277868 39.135685,24.262821 C39.144524,24.246468 39.15237,24.229578 39.159206,24.212292 C39.165092,24.19742 39.170227,24.182255 39.174652,24.166885 C39.179943,24.148527 39.184216,24.12988 39.187565,24.111073 C39.190964,24.092 39.19341,24.072762 39.195007,24.053457 C39.19661,24.034052 39.19735,24.014578 39.19735,23.995108 C39.19735,23.581448 39.19735,23.16779 39.19735,22.754128 C39.79038,22.754128 40.383408,22.754128 40.976433,22.754128 z" stroke="Black" stroke-width="0" fill="#000000" fill-opacity="1" />
  </g>
</svg>