<?xml version="1.0" encoding="utf-8" standalone="no"?>
<!DOCTYPE svg PUBLIC "-//W3C//DTD SVG 1.1//EN" "http://www.w3.org/Graphics/SVG/1.1/DTD/svg11.dtd">
<svg version="1.1" width="388.596pt" height="439.028pt" viewBox="111.7016 0.0861 388.596 439.028" xmlns="http://www.w3.org/2000/svg">
  <g id="Layer_03">
    <path d="M292.19794,78.580315 C270.6112,78.580315 249.02449,78.580315 227.43777,78.580315 C227.43777,52.41558 227.43777,26.250849 227.43777,0.08611765 C205.63593,0.08611765 183.83406,0.08611765 162.03221,0.08611765 C162.03221,26.250849 162.03221,52.41558 162.03221,78.580315 C156.30292,78.580315 148.43892,78.58032 143.24329,78.580315 C138.04765,78.58031 135.52037,78.580284 133.3448,78.58028 C116.834694,78.5802 120.5793,78.58081 121.32301,78.61523 C122.06672,78.64964 119.80952,78.71787 118.44301,78.84622 C117.0765,78.97458 116.60068,79.163055 115.99996,79.42942 C115.39924,79.6958 114.67363,80.04007 114.1069,80.47091 C113.54018,80.90174 113.13234,81.41913 112.80337,82.01971 C112.474396,82.62029 112.22429,83.30407 112.05441,84.06078 C111.88452,84.817505 111.79486,85.64717 111.74967,86.50798 C111.704475,87.36879 111.70374,88.26075 111.70323,89.13626 C111.7016,91.93819 111.702225,94.57181 111.70244,97.23233 C111.702644,99.892845 111.70244,102.58025 111.70244,105.26766 C111.70244,107.95508 111.702644,110.64249 111.70244,113.30301 C111.702225,115.963524 111.7016,118.597145 111.70323,121.39907 C111.70374,122.27459 111.704475,123.166534 111.74967,124.02735 C111.79486,124.88815 111.884514,125.71783 112.05441,126.47455 C112.2243,127.23128 112.47441,127.91505 112.80337,128.51562 C113.132324,129.11621 113.54012,129.63359 114.1069,130.06442 C114.67369,130.49525 115.39947,130.83954 115.99996,131.1059 C116.60046,131.37228 117.075676,131.56075 118.44301,131.6891 C119.81035,131.81744 122.06981,131.88568 121.32301,131.9201 C120.57622,131.95453 116.823166,131.95514 133.35945,131.95506 C135.53949,131.95505 138.07213,131.95503 143.27744,131.95502 C148.48274,131.95502 156.36069,131.95503 162.10052,131.95502 C162.10052,140.3547 162.10051,148.7535 162.10052,157.1534 C162.10054,165.55331 162.10062,173.95438 162.10046,182.35052 C162.10037,186.54858 162.10023,190.74544 162.10052,194.95099 C162.1008,199.15652 162.10152,203.37076 162.10052,207.55017 C162.09952,211.72958 162.09685,215.87415 162.10284,220.1971 C162.10585,222.35857 162.11104,224.56464 162.10052,226.44896 C162.09001,228.33328 162.06381,229.89586 162.10052,232.74855 C162.13722,235.60126 162.23683,239.74408 162.47784,243.40005 C162.71886,247.056 163.10127,250.22511 163.60141,253.38234 C164.10153,256.53958 164.7194,259.68494 165.4586,262.693 C166.19777,265.70105 167.05829,268.57175 168.03665,271.3332 C169.99342,276.856 172.42169,281.9416 175.30585,286.57004 C178.19,291.19852 181.53003,295.36984 185.30765,299.0842 C189.08527,302.79858 193.30048,306.056 197.94133,308.85205 C202.58218,311.64807 207.64868,313.98282 213.10083,315.85382 C215.8269,316.78934 218.64938,317.60895 221.60594,318.31097 C224.5625,319.013 227.65312,319.59747 230.7008,320.06927 C233.74849,320.54105 236.75325,320.90012 240.37798,321.12604 C244.00272,321.35196 248.24745,321.4447 250.62483,321.47885 C253.00224,321.51306 253.51233,321.48865 254.48813,321.47885 C255.46391,321.4691 256.9054,321.4739 258.28235,321.47668 C261.0362,321.4823 263.53186,321.4798 266.07797,321.47885 C268.62408,321.47794 271.22058,321.4786 273.80457,321.47885 C276.3885,321.47913 278.95984,321.479 281.53296,321.4789 C286.6792,321.47876 291.83252,321.47882 296.98425,321.47885 C302.13596,321.47888 307.28598,321.47885 312.43738,321.47885 C312.43704,314.413 312.43808,307.36597 312.43698,300.28937 C312.43643,296.75107 312.4354,293.20538 312.43738,289.70267 C312.43936,286.19995 312.44443,282.74017 312.4326,279.04373 C312.427,277.2913 312.4176,275.48563 312.0854,273.9744 C311.7532,272.46317 311.0982,271.24634 310.0329,270.38452 C308.96756,269.52267 307.4919,269.0158 305.69678,268.75983 C303.90167,268.50388 301.78705,268.49884 299.8639,268.49597 C296.177,268.49048 293.19363,268.49307 290.0586,268.4939 C286.92358,268.49475 283.63684,268.4938 280.4252,268.49387 C278.8194,268.4939 277.23233,268.4942 275.61832,268.4939 C274.00433,268.49365 272.36337,268.49283 270.8049,268.4939 C269.24646,268.49503 267.77048,268.49802 265.88126,268.49136 C264.93665,268.488 263.88876,268.48227 263.58478,268.4939 C263.2808,268.50555 263.72076,268.53458 258.30786,268.42685 C258.18326,268.42438 258.05557,268.42184 257.20828,268.33417 C256.36096,268.24652 254.794,268.0738 253.46797,267.8574 C252.14197,267.64102 251.0569,267.381 249.9609,267.06726 C248.86491,266.75354 247.758,266.38608 246.69815,265.9678 C244.57846,265.1313 242.647,264.09143 240.87546,262.8534 C239.10391,261.6153 237.49226,260.17896 236.05171,258.54456 C234.61119,256.91016 233.34175,255.07773 232.24883,253.07039 C231.15587,251.06305 230.2394,248.88084 229.49611,246.46019 C228.7528,244.03952 228.18271,241.3804 227.82294,238.74335 C227.4632,236.10628 227.31377,233.49129 227.2587,229.94919 C227.20366,226.4071 227.24294,221.9379 227.2587,217.69992 C227.27446,213.46196 227.2667,209.45523 227.26219,205.41638 C227.25317,197.33871 227.25725,189.13264 227.2587,180.9521 C227.26016,172.77156 227.25903,164.61655 227.2587,156.45355 C227.25838,148.29057 227.25887,140.1196 227.2587,131.95502 C238.20073,131.95502 248.66748,131.95502 259.72833,131.95502 C270.78918,131.95502 282.44415,131.95502 288.7444,131.95502 C299.42126,131.95502 294.71973,131.95502 292.9915,131.95445 C291.26328,131.9539 292.50836,131.95277 293.33957,131.95056 C295.00204,131.94612 295.00916,131.93729 295.32928,131.9201 C295.64944,131.90292 296.2826,131.87738 296.814,131.83997 C297.3454,131.80255 297.77505,131.75328 298.2093,131.6891 C298.64352,131.62492 299.08237,131.54584 299.49423,131.4494 C299.90607,131.35298 300.29102,131.2392 300.65332,131.10597 C301.37793,130.83951 302.01215,130.49525 302.5454,130.06442 C303.07867,129.6336 303.511,129.11621 303.84894,128.51562 C304.1869,127.91505 304.43045,127.23128 304.5979,126.47455 C304.76538,125.71783 304.85672,124.88814 304.90262,124.02735 C304.94858,123.16655 304.94907,122.27464 304.94937,121.399124 C304.95044,118.5972 304.9499,115.963135 304.9499,113.30301 C304.9499,110.642876 304.95044,107.956696 304.9499,105.26766 C304.94934,102.57864 304.94763,99.88678 304.9499,97.23233 C304.95212,94.57788 304.95828,91.96084 304.94614,89.158905 C304.93854,87.40787 304.92377,85.58462 304.5979,84.06078 C304.27203,82.53696 303.63504,81.31255 302.56122,80.45834 C300.41364,78.74992 296.51883,78.5223 292.19794,78.580315 z" stroke="Black" stroke-width="0" fill="#FF00FF" fill-opacity="1" />
    <path d="M301.4143,403.3297 C303.59656,402.87634 305.6056,402.234 307.4414,401.4027 C311.47916,399.5743 314.5646,396.9269 316.69778,393.46054 C318.83093,389.99414 319.89752,385.8231 319.89752,380.9473 C319.89752,373.48126 317.55487,367.7103 312.86954,363.63446 C308.1842,359.5586 301.49902,357.52066 292.81406,357.52066 C283.74814,357.52066 274.68222,357.52066 265.6163,357.52066 C263.94028,357.52066 262.6261,357.97775 261.6738,358.89197 C260.72147,359.80618 260.24533,361.1394 260.24533,362.89163 C260.24533,386.39447 260.24533,409.89728 260.24533,433.40005 C260.24533,435.1523 260.70242,436.50458 261.61664,437.45688 C262.53085,438.40918 263.826,438.8853 265.50204,438.8853 C267.33047,438.8853 268.68274,438.40918 269.55884,437.45688 C270.43497,436.50458 270.87302,435.1523 270.87302,433.40005 C270.87302,423.7628 270.87302,414.1255 270.87302,404.4882 C275.44406,404.4882 280.0151,404.4882 284.58615,404.4882 C288.1668,404.4882 291.02374,405.00244 293.1569,406.0309 C295.29004,407.0594 297.19464,409.17352 298.8707,412.37323 C302.98465,419.91547 307.09857,427.4577 311.21252,434.99994 C311.8982,436.29507 312.69812,437.26642 313.61234,437.91397 C314.52652,438.56152 315.74548,438.8853 317.26917,438.8853 C318.71667,438.8853 319.82132,438.52344 320.58316,437.79968 C321.34503,437.07596 321.76404,436.1427 321.8402,434.99994 C321.9164,433.85718 321.61166,432.67633 320.926,431.45737 C317.42154,425.0198 313.91708,418.58228 310.41257,412.14468 C308.66037,408.7926 306.66052,406.35468 304.4131,404.83102 C303.48215,404.19983 302.48254,403.69943 301.4143,403.3297 z M291.0999,396.2603 C284.3576,396.2603 277.61533,396.2603 270.87302,396.2603 C270.87302,386.2421 270.87302,376.22388 270.87302,366.20566 C277.61533,366.20566 284.3576,366.20566 291.0999,366.20566 C297.19464,366.20566 301.7657,367.4627 304.81308,369.97675 C307.8604,372.49084 309.38412,376.22388 309.38412,381.17584 C309.38412,386.1278 307.8604,389.87988 304.81308,392.43204 C301.7657,394.98422 297.19464,396.2603 291.0999,396.2603 z" stroke="Black" stroke-width="0" fill="#FFFFFF" fill-opacity="1" />
    <path d="M380.0242,438.8853 C381.85263,438.8853 383.2049,438.40918 384.081,437.45688 C384.95712,436.50458 385.39517,435.1523 385.39517,433.40005 C385.39517,409.66873 385.39517,385.93735 385.39517,362.206 C385.39517,360.37756 384.93808,359.00626 384.02386,358.09204 C383.10968,357.17783 381.77643,356.72073 380.0242,356.72073 C378.34818,356.72073 377.053,357.17783 376.1388,358.09204 C375.22458,359.00626 374.7675,360.37756 374.7675,362.206 C374.7675,385.93735 374.7675,409.66873 374.7675,433.40005 C374.7675,435.1523 375.22458,436.50458 376.1388,437.45688 C377.053,438.40918 378.34818,438.8853 380.0242,438.8853 z" stroke="Black" stroke-width="0" fill="#FFFFFF" fill-opacity="1" />
    <path d="M203.21976,426.69403 C200.80144,427.52103 198.30641,428.19464 195.73466,428.71472 C192.34445,429.4004 188.85904,429.74323 185.27838,429.74323 C175.603,429.74323 168.30836,427.0387 163.39449,421.6296 C158.4806,416.22055 156.02367,408.2974 156.02367,397.86017 C156.02367,391.07977 157.07121,385.30884 159.16628,380.54733 C161.26134,375.7858 164.40393,372.16705 168.59406,369.69107 C172.78418,367.2151 177.88852,365.97708 183.90707,365.97708 C187.94482,365.97708 191.65881,366.4723 195.049,367.4627 C198.4392,368.4531 201.69606,370.09103 204.81963,372.3766 C205.88618,373.06223 206.89563,373.34793 207.84795,373.23364 C208.80023,373.1194 209.60017,372.7194 210.24774,372.03375 C210.8953,371.34808 211.33336,370.54816 211.56192,369.63394 C211.79047,368.71973 211.77142,367.8055 211.50478,366.8913 C211.23813,365.97708 210.6477,365.17715 209.7335,364.49152 C206.07664,361.6727 202.0389,359.6348 197.62021,358.37775 C193.20154,357.1207 188.6305,356.49216 183.90707,356.49216 C177.81235,356.49216 172.34612,357.4445 167.50842,359.3491 C162.67073,361.25366 158.5568,364.01538 155.16661,367.63412 C151.7764,371.25284 149.20518,375.59534 147.45296,380.6616 C145.70073,385.72784 144.8246,391.46072 144.8246,397.86017 C144.8246,406.3928 146.36734,413.74457 149.45279,419.91547 C152.53825,426.0864 157.07121,430.82886 163.05165,434.14285 C169.03212,437.45688 176.32674,439.1139 184.93556,439.1139 C189.20187,439.1139 193.54437,438.69485 197.96304,437.85684 C202.38173,437.01883 206.19093,435.95224 209.39067,434.6571 C210.45724,434.27618 211.21909,433.64764 211.6762,432.77158 C212.1333,431.89545 212.36186,430.8479 212.36186,429.62894 C212.36186,419.8393 212.36186,410.04965 212.36186,400.25998 C212.36186,398.81247 211.96188,397.7078 211.16194,396.94595 C210.36201,396.1841 209.2764,395.8032 207.90508,395.8032 C201.16278,395.8032 194.42047,395.8032 187.67818,395.8032 C186.30687,395.8032 185.22125,396.14603 184.42131,396.83167 C183.62137,397.51733 183.2214,398.50772 183.2214,399.80286 C183.2214,401.09802 183.62137,402.12646 184.42131,402.8883 C185.22125,403.65018 186.30687,404.0311 187.67818,404.0311 C192.8587,404.0311 198.03923,404.0311 203.21976,404.0311 C203.21976,411.58542 203.21976,419.13974 203.21976,426.69403 z" stroke="Black" stroke-width="0" fill="#FFFFFF" fill-opacity="1" />
    <path d="M437.1028,438.0854 C444.4546,438.0854 451.80637,438.0854 459.1581,438.0854 C465.78616,438.0854 471.63327,437.19025 476.69952,435.3999 C481.76578,433.60956 486.05112,431.01932 489.5556,427.62912 C493.0601,424.23892 495.7265,420.02975 497.55493,415.0016 C499.38333,409.97345 500.29758,404.22156 500.29758,397.74588 C500.29758,384.71838 496.73596,374.75732 489.61273,367.86267 C482.48953,360.968 472.33798,357.52066 459.1581,357.52066 C451.80637,357.52066 444.4546,357.52066 437.1028,357.52066 C435.27438,357.52066 433.865,358.01587 432.8746,359.00626 C431.8842,359.99667 431.389,361.40604 431.389,363.23447 C431.389,386.28018 431.389,409.3259 431.389,432.37158 C431.389,434.2 431.8842,435.6094 432.8746,436.59982 C433.865,437.5902 435.27438,438.0854 437.1028,438.0854 z M458.47247,429.05756 C452.98718,429.05756 447.50195,429.05756 442.0167,429.05756 C442.0167,408.22122 442.0167,387.38486 442.0167,366.5485 C447.50195,366.5485 452.98718,366.5485 458.47247,366.5485 C468.68115,366.5485 476.3567,369.13876 481.4991,374.31924 C486.64154,379.4998 489.21277,387.3087 489.21277,397.74588 C489.21277,403.0026 488.56522,407.59268 487.27008,411.51617 C485.97495,415.43964 484.0513,418.69653 481.4991,421.2868 C478.94696,423.87708 475.76627,425.81973 471.95706,427.1149 C468.14786,428.41003 463.65298,429.05756 458.47247,429.05756 z" stroke="Black" stroke-width="0" fill="#FFFFFF" fill-opacity="1" />
    <path d="M348.71545,121.74951 C369.54102,108.91562 390.36658,96.08174 411.19214,83.24785 C411.19214,162.65819 411.19214,242.06853 411.19214,321.47885 C429.4392,321.47885 447.6863,321.47885 465.93338,321.47885 C470.25488,321.5326 474.15042,321.31992 476.28082,319.58826 C478.41122,317.85663 478.77655,314.60596 478.6853,310.86218 C478.6853,210.86884 478.6853,110.87551 478.6853,10.882174 C478.77655,7.1384 478.41122,3.8877466 476.28082,2.156091 C474.15042,0.424435 470.25488,0.21177655 465.93338,0.26549688 C452.93115,0.26549688 439.92896,0.26549688 426.92676,0.26549688 C401.0216,17.28094 375.11642,34.296383 349.21127,51.311825 C346.47446,53.165794 342.2998,55.70192 340.06573,57.75736 C337.83167,59.8128 337.53818,61.387558 337.6138,66.977165 C337.6138,83.64469 337.6138,100.312225 337.6138,116.97975 C337.57642,120.656334 338.47604,122.9175 340.463,123.717995 C342.45004,124.51847 345.52435,123.85827 348.71545,121.74951 z" stroke="Black" stroke-width="0" fill="#00FFFF" fill-opacity="1" />
  </g>
</svg>