<?xml version="1.0" encoding="utf-8"?>
<svg viewBox="1093 1590 180 205" xmlns="http://www.w3.org/2000/svg">
  <g id="Default">
    <path d="M1093.1348,1794.2227 C1152.9126,1760.2744 1212.6904,1726.326 1272.4683,1692.3778 C1212.6904,1658.4296 1152.9126,1624.4812 1093.1348,1590.533 C1113.1465,1624.4812 1133.1583,1658.4296 1153.1702,1692.3778 C1133.1583,1726.326 1113.1465,1760.2744 1093.1348,1794.2227 z M1263.284,1692.3778 C1228.3344,1692.3778 1193.3846,1692.3778 1158.4349,1692.3778 C1140.8469,1662.5411 1123.2588,1632.7046 1105.6708,1602.868 C1158.2086,1632.7046 1210.7463,1662.5411 1263.284,1692.3778 z" stroke="Black" stroke-width="0" fill="#000000" fill-opacity="1" />
    <path d="M1263.284,1692.3778 L1105.6708,1602.868 L1158.4349,1692.3778 z" stroke="#000000" stroke-width="0.24" stroke-linecap="round" stroke-linejoin="round" fill="none" />
    <path d="M1093.1348,1794.2227 L1272.4683,1692.3778 L1093.1348,1590.533 L1153.1702,1692.3778 z" stroke="#000000" stroke-width="0.24" stroke-linecap="round" stroke-linejoin="round" fill="none" />
  </g>
</svg>